<svg width="214" height="129" viewBox="0 0 214 129" fill="none" xmlns="http://www.w3.org/2000/svg">
<path d="M71.1021 9.46324C71.1112 14.6785 73.6981 18.9019 76.8802 18.8963C80.0623 18.8908 82.6345 14.6584 82.6254 9.44313C82.6163 4.22783 80.0293 0.00450222 76.8472 0.010056C73.6652 0.0156098 71.093 4.24795 71.1021 9.46324Z" fill="#F9C79D"/>
<path d="M112.29 12.9407C112.315 20.057 115.903 25.8134 120.304 25.798C124.705 25.7827 128.253 20.0013 128.228 12.8851C128.203 5.76886 124.615 0.0124542 120.214 0.0278172C115.813 0.0431802 112.265 5.82449 112.29 12.9407Z" fill="#F9C79D"/>
<path d="M85.6338 12.7999C85.3879 19.8417 88.7476 25.6744 93.1378 25.8277C97.528 25.981 101.286 20.3969 101.532 13.3551C101.778 6.31338 98.4185 0.480636 94.0283 0.327326C89.638 0.174015 85.8797 5.75819 85.6338 12.7999Z" fill="#F9C79D"/>
<path d="M131.431 9.7802C131.44 14.9955 134.027 19.2188 137.209 19.2133C140.391 19.2077 142.963 14.9754 142.954 9.76009C142.945 4.54479 140.358 0.321458 137.176 0.327012C133.994 0.332565 131.422 4.5649 131.431 9.7802Z" fill="#F9C79D"/>
<path d="M57.176 10.6551C57.6794 15.0066 60.3539 18.272 63.1495 17.9485C65.9452 17.6251 67.8033 13.8353 67.2998 9.48376C66.7963 5.13226 64.1219 1.8669 61.3262 2.19036C58.5306 2.51383 56.6725 6.30363 57.176 10.6551Z" fill="#F9C79D"/>
<path d="M146.933 11.4316C146.394 15.8246 148.111 19.6503 150.769 19.9767C153.427 20.3031 156.019 17.0064 156.559 12.6134C157.098 8.22041 155.38 4.39462 152.723 4.06826C150.065 3.74191 147.473 7.03857 146.933 11.4316Z" fill="#F9C79D"/>
<path d="M81.7455 87.0651C81.6643 86.9995 81.5629 86.9643 81.4587 86.9655C81.3545 86.9667 81.254 87.0044 81.1743 87.0719C81.0947 87.1395 81.041 87.2327 81.0223 87.3357C81.0036 87.4387 81.0212 87.545 81.072 87.6364C84.6139 94.3416 86.5718 101.45 86.9459 108.962C87.1405 112.856 86.6466 116.066 85.4644 118.591C83.3942 123.021 79.8025 125.73 74.6893 126.717C65.8073 128.439 59.9858 121.816 56.1921 114.525C47.7891 98.3857 41.9451 82.2091 40.501 63.8978C40.4869 63.7219 40.4296 63.5522 40.3343 63.404C40.239 63.2557 40.1085 63.1336 39.9547 63.0484C30.2721 57.5309 21.8765 50.4023 14.768 41.6626C12.83 39.2797 10.645 39.851 8.48252 39.0617C4.11263 37.4681 4.20242 33.7096 0.648144 31.5898C0.458583 31.4796 0.341353 31.3167 0.296457 31.1012C-0.376985 27.9691 0.096937 25.1027 1.71819 22.5018C1.85287 22.2863 1.87532 22.0583 1.78553 21.8178C1.19439 20.2091 -0.212346 16.2176 2.63107 15.7591C4.16253 15.5085 5.52687 15.8969 6.7241 16.9242C6.81607 17.0018 6.92822 17.0512 7.04729 17.0667C7.16637 17.0823 7.28738 17.0632 7.39601 17.0118C7.50464 16.9604 7.59634 16.8788 7.66026 16.7767C7.72418 16.6746 7.75764 16.5562 7.75669 16.4356C7.72676 14.5188 8.24307 9.82067 11.6402 12.2787C12.5082 12.9051 13.0769 13.6694 13.3463 14.5714C14.1095 17.1222 15.0124 19.4875 16.055 21.6674C16.1526 21.8727 16.3005 22.0498 16.4848 22.1821C16.6691 22.3144 16.8838 22.3976 17.1088 22.4238C17.3338 22.4501 17.5618 22.4187 17.7714 22.3324C17.981 22.2461 18.1653 22.1078 18.3073 21.9305C19.1753 20.8406 20.5222 18.2923 22.0337 18.0217C24.4481 17.5757 25.7126 18.4101 25.8274 20.5248C26.0668 24.9599 24.8097 28.9439 22.0561 32.4768C21.2779 33.4691 21.5024 34.4463 22.2058 35.4761C27.0745 42.6022 32.8337 49.0042 39.4833 54.682C39.5757 54.7594 39.6879 54.8092 39.8072 54.8257C39.9264 54.8423 40.0479 54.8249 40.1577 54.7756C40.2676 54.7262 40.3616 54.6469 40.4288 54.5467C40.4961 54.4464 40.5341 54.3293 40.5384 54.2084C40.8826 44.9099 42.177 36.957 48.1931 29.0265C50.9567 25.3783 54.7455 22.79 59.5593 21.2615C63.3605 20.0513 67.678 20.5699 71.8459 20.4722C74.0508 20.4221 76.0636 20.615 77.8844 21.051C81.2766 21.8629 83.5588 22.6045 84.7311 23.2761C93.3162 28.2072 97.1025 35.7768 96.0898 45.9848C95.8304 48.6058 94.9973 51.0187 93.5906 53.2237C91.3557 56.7316 88.859 60.0441 86.1004 63.1611C83.3767 66.2356 80.3761 69.4754 80.3163 73.1361C80.3113 73.3917 80.3986 73.6122 80.5782 73.7976C86.3349 79.5606 91.7324 85.6494 96.7707 92.0639C97.0178 92.3792 97.3756 92.5876 97.7708 92.6463C98.1659 92.705 98.5685 92.6096 98.8958 92.3796C101.769 90.3576 106.349 89.1849 108.818 92.5976C108.895 92.705 108.999 92.7901 109.12 92.8442C109.241 92.8983 109.374 92.9196 109.506 92.9058C110.09 92.8507 110.669 92.5575 111.242 92.0263C117.198 86.4687 123.284 81.054 129.5 75.7821C130.555 74.8876 130.682 73.8277 130.203 72.4972C127.158 63.9354 119.96 58.2525 116.929 50.1643C116.49 48.9966 116.293 47.6887 116.338 46.2404C116.45 42.497 116.143 38.3626 117.625 35.0552C120.461 28.7259 128.325 22.5995 135.299 22.2312C136.262 22.1811 137.369 21.9932 138.621 21.6674C142.984 20.5248 149.95 22.2162 153.175 23.3738C158.423 25.253 162.521 28.568 165.469 33.3187C168.457 38.1446 170.158 43.3664 170.572 48.9841C170.582 49.0912 170.62 49.1937 170.683 49.2805C170.746 49.3672 170.832 49.4349 170.931 49.476C171.03 49.5171 171.138 49.5301 171.244 49.5137C171.349 49.4972 171.448 49.4518 171.53 49.3825C178.334 43.5944 184.218 36.987 189.182 29.5602C189.401 29.2363 189.519 28.8538 189.52 28.4614C189.521 28.0691 189.406 27.6849 189.189 27.3578C186.638 23.5016 184.378 19.2695 185.583 14.5263C186.092 12.5343 188.538 10.9257 190.02 13.1356C190.943 14.4987 192.05 15.6889 193.342 16.7062C193.454 16.7954 193.588 16.8535 193.729 16.8746C193.871 16.8957 194.016 16.8791 194.15 16.8265C196.687 15.8568 196.492 8.45257 200.256 6.15237C200.496 6.00704 200.75 5.97449 201.019 6.05467C202.905 6.59088 203.661 7.8462 203.287 9.82066C203.252 9.99966 203.269 10.1849 203.336 10.3546C203.402 10.5242 203.516 10.6711 203.663 10.7778C203.81 10.8846 203.985 10.9468 204.166 10.957C204.347 10.9672 204.528 10.925 204.686 10.8355C208.57 8.66305 211.114 11.8202 209.58 15.496C209.493 15.7033 209.464 15.9303 209.494 16.1536C209.524 16.3769 209.613 16.5885 209.752 16.7664C210.32 17.513 210.922 17.6133 211.555 17.067C211.664 16.9728 211.794 16.9048 211.933 16.8681C212.072 16.8314 212.218 16.827 212.359 16.8552C212.501 16.8835 212.634 16.9436 212.748 17.0311C212.863 17.1186 212.957 17.2311 213.022 17.3602C214.586 20.4797 214.413 23.1483 211.488 25.1628C209.348 26.6261 207.624 28.4678 206.317 30.6878C204.506 33.7472 201.132 33.6795 198.146 34.3711C197.903 34.43 197.686 34.5613 197.525 34.747C194.801 37.8214 192.123 41.1815 189.354 43.8275C183.996 48.949 178.177 53.3891 171.897 57.1476C171.706 57.2605 171.548 57.4204 171.435 57.6123C171.322 57.8042 171.26 58.0219 171.253 58.245C170.774 71.0439 168.061 83.3893 163.112 95.2812C160.394 101.811 156.979 108.586 152.868 115.607C149.95 120.591 145.58 126.341 139.901 127.657C133.862 129.062 127.165 126.191 123.873 120.884C122.691 118.98 122.017 116.637 121.853 113.856C121.291 104.211 124.539 95.191 129.261 86.9824C129.31 86.8986 129.34 86.805 129.35 86.7083C129.359 86.6116 129.348 86.5139 129.317 86.4218C129.286 86.3298 129.235 86.2456 129.169 86.175C129.102 86.1044 129.021 86.0491 128.931 86.0127C128.807 85.9576 128.639 85.9601 128.43 86.0202C128.28 86.0603 128.146 86.153 128.026 86.2984C124.307 90.8161 119.997 94.5896 115.896 98.754C115.218 99.4456 114.662 100.217 114.228 101.069C112.814 103.843 114.086 106.902 112.282 109.639C110.277 112.675 107.975 115.091 105.376 116.885C104.692 117.356 103.914 117.296 103.041 116.705C101.001 115.326 98.9307 113.988 96.8306 112.691C96.6198 112.558 96.4469 112.371 96.3293 112.149C94.6082 108.797 93.5083 105.256 93.0294 101.528C92.7301 99.1674 86.7065 92.9434 84.9256 91.004C83.9155 89.899 83.1073 88.11 81.7455 87.0651ZM75.0859 33.6119L74.3975 34.2584C74.3771 34.2774 74.3607 34.3004 74.3492 34.326C74.3378 34.3515 74.3315 34.3791 74.3308 34.4071C74.3301 34.4351 74.335 34.463 74.3452 34.4891C74.3553 34.5152 74.3706 34.5389 74.39 34.559L74.4573 34.6267C74.9255 35.1258 75.401 35.6089 75.8565 36.0482C76.3121 36.4874 76.7388 36.8743 77.1122 37.1864C77.4855 37.4986 77.7981 37.73 78.0321 37.8674C78.266 38.0047 78.4168 38.0453 78.4756 37.9868L78.5504 37.9116C78.6112 37.8555 78.5794 37.7016 78.4566 37.4589C78.3338 37.2161 78.1225 36.8892 77.8348 36.4968C77.547 36.1044 77.1885 35.6543 76.7798 35.1722C76.371 34.6901 75.92 34.1854 75.4525 33.6871L75.3852 33.6194C75.3662 33.5989 75.3433 33.5824 75.3179 33.5709C75.2925 33.5594 75.265 33.5531 75.2371 33.5524C75.2092 33.5517 75.1815 33.5566 75.1555 33.5669C75.1296 33.5771 75.1059 33.5924 75.0859 33.6119ZM53.5657 36.7164C53.2614 37.418 53.446 37.5859 54.1194 37.22L57.1798 35.5663C57.3296 35.4886 57.4467 35.3595 57.5097 35.2024C57.5726 35.0453 57.5774 34.8707 57.523 34.7104C57.4686 34.5501 57.3586 34.4148 57.2133 34.3291C57.0679 34.2433 56.8967 34.2129 56.7308 34.2433C55.2293 34.4889 54.1743 35.3132 53.5657 36.7164ZM134.618 38.6934L138.734 35.7693C138.759 35.7511 138.777 35.7236 138.782 35.6927C138.788 35.6618 138.781 35.6299 138.764 35.6039L138.749 35.5738C138.634 35.411 138.467 35.2876 138.257 35.2108C138.048 35.1339 137.8 35.1052 137.527 35.1261C137.255 35.1471 136.964 35.2173 136.67 35.3328C136.376 35.4483 136.086 35.6068 135.815 35.7993L135.621 35.9422C135.076 36.3292 134.645 36.8306 134.422 37.3364C134.199 37.8421 134.202 38.3112 134.431 38.6407L134.454 38.6708C134.473 38.6952 134.501 38.7113 134.531 38.7155C134.562 38.7197 134.593 38.7117 134.618 38.6934ZM155.63 37.9717C156.902 38.4829 157.937 39.2997 158.735 40.4223C158.767 40.4654 158.813 40.4962 158.865 40.5098C158.917 40.5234 158.973 40.519 159.022 40.4973C159.071 40.4756 159.112 40.4379 159.137 40.3901C159.162 40.3424 159.171 40.2876 159.161 40.2344C158.852 38.8061 158.074 37.6836 156.827 36.8667C156.178 36.4408 155.679 36.4784 155.33 36.9795C155.274 37.0614 155.236 37.1552 155.221 37.2537C155.205 37.3522 155.212 37.4529 155.241 37.5483C155.27 37.6437 155.32 37.7314 155.387 37.8047C155.454 37.878 155.537 37.9351 155.63 37.9717ZM135.344 54.8248L133.615 57.7564C133.543 57.8778 133.5 58.0143 133.49 58.1552C133.48 58.2962 133.502 58.4376 133.556 58.5683C134.074 59.8211 135.045 60.5202 136.466 60.6655C136.608 60.6793 136.75 60.6593 136.881 60.607C137.013 60.5547 137.13 60.4716 137.222 60.3648C139.163 58.1598 140.063 55.584 139.923 52.6374C140.856 52.4219 141.168 51.4697 140.859 49.7809C140.073 45.4511 134.925 45.2331 133.443 49.0518C132.585 51.2567 133.219 53.1811 135.344 54.8248ZM52.6378 52.6374C52.3086 55.9699 52.9646 58.879 54.6058 61.3646C54.746 61.5777 54.9285 61.7593 55.1421 61.898C55.3556 62.0367 55.5954 62.1294 55.8464 62.1704C56.0974 62.2114 56.354 62.1997 56.6003 62.136C56.8465 62.0723 57.077 61.9581 57.2771 61.8006C59.9709 59.6808 60.8913 56.8644 60.0382 53.3515C59.9684 53.0458 59.8362 53.0182 59.6416 53.2688L59.4546 53.5168C59.5892 52.7752 59.5194 52.2064 59.2451 51.8105C59.1054 51.61 58.9158 51.4948 58.6764 51.4647L56.9479 51.2542C57.8658 51.0488 58.2573 50.703 58.1227 50.2169L58.9233 50.5101C59.2725 50.6404 59.4022 50.5251 59.3124 50.1643C59.043 49.0468 58.4843 48.1522 57.6363 47.4807C56.8281 46.8443 55.9153 46.6538 54.8976 46.9094C51.6651 47.7137 50.7073 51.4948 50.827 54.3963C50.8305 54.4573 50.8528 54.5157 50.8908 54.5633C50.9289 54.6109 50.9808 54.6454 51.0393 54.6619C51.0978 54.6785 51.16 54.6763 51.2172 54.6556C51.2744 54.635 51.3237 54.5969 51.3583 54.5467L52.6378 52.6374ZM72.437 50.6228C70.8507 54.3111 71.3071 57.5585 73.8063 60.3648C75.5348 62.3042 76.6124 60.9962 77.6076 59.3726C77.6785 59.2596 77.7198 59.1307 77.7276 58.9979C77.7355 58.8651 77.7096 58.7328 77.6525 58.6134L76.126 55.3585C76.7945 55.138 77.3207 54.5968 77.7048 53.7348C77.7543 53.6287 77.8367 53.5412 77.9397 53.4853C78.0426 53.4295 78.1604 53.4085 78.2754 53.4255C78.3904 53.4425 78.4962 53.4965 78.5768 53.5795C78.6575 53.6624 78.7086 53.7697 78.7225 53.8852L78.9694 55.802C78.9819 55.9167 79.0356 56.0229 79.1205 56.1006C79.2054 56.1783 79.3156 56.2221 79.4305 56.224C79.5453 56.2258 79.6568 56.1855 79.7442 56.1106C79.8315 56.0356 79.8886 55.9313 79.9047 55.817C80.3238 52.8854 78.7749 46.9019 74.9063 46.9921C73.5594 47.0272 72.442 47.9092 71.5541 49.6381C71.5022 49.7367 71.4761 49.847 71.478 49.9585C71.48 50.0701 71.5099 50.1793 71.5652 50.2761C71.6204 50.3728 71.6992 50.454 71.794 50.512C71.8889 50.57 71.9969 50.6029 72.1078 50.6078L72.437 50.6228ZM158.802 61.6878C159.555 59.9489 159.89 58.1423 159.805 56.2681C159.708 54.0581 159.595 51.6752 157.972 50.4349C156.495 49.3073 155.253 49.6155 154.245 51.3595C154.218 51.4057 154.203 51.458 154.201 51.5117C154.199 51.5654 154.21 51.619 154.234 51.6679C154.257 51.7167 154.292 51.7593 154.336 51.792C154.38 51.8247 154.431 51.8465 154.485 51.8556L155.727 52.0736C156.001 52.1237 156.216 52.264 156.37 52.4945C156.979 53.4016 156.979 54.1909 156.37 54.8624C155.427 55.9047 154.856 57.1075 154.657 58.4705C154.645 58.5544 154.61 58.6332 154.556 58.6984C154.502 58.7636 154.432 58.8125 154.352 58.8397C154.272 58.867 154.186 58.8715 154.104 58.8527C154.022 58.834 153.946 58.7928 153.886 58.7336L153.579 58.4254C153.405 58.25 153.342 58.0371 153.392 57.7865C153.721 56.1929 153.482 54.6043 152.674 53.0207C152.584 52.8503 152.522 52.8604 152.487 53.0508C152.133 55.1505 152 57.2578 152.09 59.3726C152.135 60.5527 152.831 61.3571 153.564 62.1839C154.168 62.8605 154.851 63.2488 155.615 63.3491C156.961 63.5245 158.121 63.1135 159.094 62.1163C159.149 62.0561 159.139 62.006 159.064 61.9659C158.999 61.9359 158.934 61.9033 158.869 61.8682C158.79 61.8281 158.767 61.768 158.802 61.6878ZM60.7191 78.5183C62.9041 76.7819 66.9223 76.8946 69.3766 78.9693C69.4562 79.0352 69.5516 79.0791 69.6533 79.0965C69.755 79.1139 69.8595 79.1042 69.9563 79.0685C70.0531 79.0328 70.139 78.9722 70.2053 78.8928C70.2717 78.8135 70.3162 78.7181 70.3344 78.616C70.933 75.063 72.013 71.6679 73.5744 68.4305C73.7989 67.9745 73.7141 67.9069 73.32 68.2276C68.2243 72.3769 62.0735 72.1139 57.1349 68.0397C56.8456 67.7991 56.7633 67.8567 56.888 68.2125C57.9555 71.2945 58.6265 74.4667 58.9008 77.729C59.0156 79.1222 59.6217 79.3853 60.7191 78.5183ZM139.257 75.4364C139.542 77.0651 139.801 78.6712 140.036 80.2547C140.045 80.3234 140.071 80.3887 140.112 80.4445C140.153 80.5002 140.207 80.5448 140.27 80.574C140.333 80.6032 140.402 80.6161 140.47 80.6115C140.539 80.6069 140.606 80.5851 140.664 80.5479C143.677 78.5835 146.718 78.581 149.786 80.5404C150.554 81.0315 151.05 80.8336 151.275 79.9466L153.632 70.6255C153.662 70.4952 153.619 70.4651 153.504 70.5353C147.783 74.0583 142.438 73.6724 137.469 69.3777C137.215 69.1572 137.15 69.2023 137.274 69.513C138.098 71.505 138.891 73.3241 139.257 75.4364Z" fill="#F9C79D"/>
<path d="M157.175 52.2898C156.528 51.7034 154.976 50.6477 153.941 51.1169C152.906 51.5861 152.216 52.4853 152 52.8763C152 53.2673 152.129 54.0492 152.647 54.0492C153.164 54.0492 153.294 56.3951 153.294 57.568C153.078 57.7635 152.776 58.2718 153.294 58.7409C153.811 59.2101 154.372 58.9364 154.588 58.7409L155.881 56.3951L157.822 54.6357C158.34 54.1665 157.606 52.8763 157.175 52.2898Z" fill="white"/>
<path d="M44.9659 15.2095C46.0273 19.0107 48.9624 21.5129 51.5218 20.7983C54.0811 20.0837 55.2955 16.423 54.2342 12.6217C53.1729 8.82051 50.2377 6.3183 47.6784 7.03289C45.119 7.74747 43.9046 11.4083 44.9659 15.2095Z" fill="#F9C79D"/>
<path d="M159.564 15.3002C158.376 19.0681 159.474 22.7723 162.016 23.5739C164.558 24.3754 167.582 21.9707 168.77 18.2028C169.958 14.4349 168.861 10.7307 166.318 9.92913C163.776 9.12759 160.752 11.5323 159.564 15.3002Z" fill="#F9C79D"/>
<path d="M35.1104 24.7739C36.1201 28.4394 38.8861 30.8744 41.2886 30.2126C43.691 29.5509 44.8202 26.043 43.8105 22.3775C42.8009 18.712 40.0348 16.2771 37.6324 16.9388C35.2299 17.6006 34.1008 21.1085 35.1104 24.7739Z" fill="#F9C79D"/>
<path d="M169.508 25.6588C168.244 29.2093 169.116 32.763 171.456 33.5962C173.795 34.4293 176.717 32.2265 177.981 28.6759C179.246 25.1254 178.374 21.5717 176.034 20.7386C173.694 19.9054 170.773 22.1083 169.508 25.6588Z" fill="#F9C79D"/>
<path d="M74.8885 34.0653C74.912 34.0478 74.9399 34.034 74.9704 34.0249C75.001 34.0157 75.0336 34.0113 75.0664 34.012C75.0992 34.0126 75.1315 34.0182 75.1614 34.0285C75.1914 34.0389 75.2183 34.0536 75.2406 34.072L75.3199 34.1327C75.8699 34.5796 76.4005 35.0322 76.8814 35.4645C77.3624 35.8969 77.7842 36.3005 78.1227 36.6524C78.4612 37.0043 78.7098 37.2975 78.8543 37.5152C78.9988 37.7329 79.0363 37.8708 78.9647 37.9212L78.8767 37.9886C78.8075 38.0411 78.6301 38.0047 78.3548 37.8815C78.0796 37.7584 77.7118 37.5508 77.2725 37.2709C76.8333 36.9909 76.3312 36.644 75.7952 36.2501C75.2592 35.8562 74.6997 35.423 74.1489 34.9753L74.0697 34.9147C74.0469 34.8966 74.0289 34.8753 74.0169 34.8519C74.005 34.8285 73.9993 34.8035 74.0001 34.7784C74.0009 34.7533 74.0083 34.7286 74.0217 34.7057C74.0352 34.6828 74.0545 34.6621 74.0785 34.645L74.8885 34.0653Z" fill="#5B0200"/>
<path d="M53.1717 37.1408C53.9072 35.3737 55.1824 34.3356 56.9972 34.0264C57.1976 33.9881 57.4045 34.0264 57.5802 34.1343C57.7559 34.2423 57.8888 34.4128 57.9545 34.6146C58.0203 34.8165 58.0146 35.0363 57.9385 35.2342C57.8623 35.432 57.7209 35.5946 57.5398 35.6924L53.8409 37.7751C53.027 38.2358 52.8039 38.0243 53.1717 37.1408Z" fill="#5B0200"/>
<path d="M134.399 38.9861C134.371 39.0065 134.337 39.0154 134.303 39.0107C134.269 39.006 134.238 38.9882 134.217 38.961L134.192 38.9276C133.939 38.5611 133.936 38.0395 134.182 37.4771C134.429 36.9146 134.905 36.3571 135.506 35.9267L135.721 35.7679C136.02 35.5538 136.34 35.3776 136.665 35.2491C136.989 35.1207 137.311 35.0426 137.612 35.0193C137.913 34.996 138.187 35.028 138.418 35.1134C138.65 35.1988 138.834 35.336 138.961 35.5171L138.977 35.5506C138.997 35.5795 139.004 35.615 138.998 35.6493C138.992 35.6837 138.972 35.7143 138.944 35.7345L134.399 38.9861Z" fill="#5B0200"/>
<path d="M155.422 38.4302C155.328 38.3931 155.244 38.3351 155.176 38.2608C155.108 38.1864 155.058 38.0975 155.029 38.0008C155 37.904 154.992 37.8019 155.008 37.702C155.024 37.6021 155.062 37.507 155.119 37.4239C155.472 36.9158 155.977 36.8776 156.633 37.3096C157.896 38.138 158.683 39.2763 158.996 40.7247C159.006 40.7786 158.997 40.8343 158.972 40.8827C158.946 40.9311 158.905 40.9693 158.855 40.9914C158.805 41.0134 158.749 41.0178 158.697 41.004C158.644 40.9902 158.597 40.959 158.564 40.9153C157.757 39.7769 156.709 38.9485 155.422 38.4302Z" fill="#5B0200"/>
<path d="M139.936 52.6888C139.547 49.4743 137.981 48.2315 135.239 48.9607C135.088 49.0022 134.955 49.0945 134.859 49.2233C134.763 49.3521 134.71 49.5104 134.707 49.6741C134.705 49.8378 134.753 49.9979 134.845 50.1299C134.937 50.262 135.067 50.3588 135.216 50.4056L136.693 50.8527C136.8 50.886 136.897 50.9498 136.972 51.0372C137.046 51.1245 137.097 51.2319 137.118 51.3476C137.365 52.7367 136.759 53.9581 135.299 55.0119C133.148 53.2662 132.506 51.2226 133.375 48.8808C134.875 44.8254 140.088 45.0569 140.883 49.6552C141.196 51.4488 140.881 52.46 139.936 52.6888Z" fill="white"/>
<path d="M57.8574 50.4842C56.0663 47.4443 53.2779 50.4766 52.7089 52.9436L51.5078 54.8836C51.4754 54.9346 51.4291 54.9733 51.3754 54.9943C51.3217 55.0153 51.2633 55.0176 51.2084 55.0007C51.1535 54.9839 51.1047 54.9489 51.069 54.9005C51.0333 54.8521 51.0124 54.7928 51.0092 54.7309C50.8968 51.7826 51.7958 47.9408 54.8301 47.1235C55.7854 46.8638 56.6422 47.0573 57.4008 47.704C58.1968 48.3863 58.7213 49.2952 58.9741 50.4307C59.0584 50.7973 58.9367 50.9145 58.6089 50.7821L57.8574 50.4842Z" fill="white"/>
<path d="M75.9254 55.1682C73.6259 53.9958 73.1977 50.8085 76.5359 51.0942C76.6206 51.1004 76.7056 51.0825 76.7793 51.0429C76.8529 51.0034 76.9116 50.9443 76.9473 50.8736C76.9829 50.8029 76.9938 50.7241 76.9783 50.6482C76.9629 50.5722 76.9219 50.5028 76.861 50.4494C75.0479 48.8276 73.433 48.8618 72.0164 50.552L71.6675 50.5373C71.5499 50.5326 71.4355 50.5005 71.335 50.444C71.2345 50.3874 71.151 50.3083 71.0925 50.214C71.0339 50.1197 71.0022 50.0132 71.0001 49.9044C70.998 49.7957 71.0258 49.6883 71.0807 49.5921C72.0216 47.9068 73.2057 47.0471 74.6329 47.0129C78.7323 46.925 80.3736 52.7575 79.9295 55.6152C79.9124 55.7265 79.8519 55.8283 79.7594 55.9013C79.6668 55.9743 79.5486 56.0136 79.427 56.0118C79.3053 56.01 79.1885 55.9673 79.0985 55.8915C79.0086 55.8158 78.9516 55.7123 78.9384 55.6005L78.6767 53.732C78.662 53.6195 78.6079 53.5149 78.5224 53.4341C78.4369 53.3532 78.3248 53.3005 78.203 53.284C78.0812 53.2674 77.9563 53.2879 77.8472 53.3423C77.7382 53.3967 77.6508 53.4821 77.5984 53.5855C77.1914 54.4257 76.6337 54.9533 75.9254 55.1682Z" fill="white"/>
<path d="M139.985 52.7969C140.136 55.8105 139.159 58.4449 137.053 60.7C136.953 60.8093 136.826 60.8942 136.683 60.9477C136.541 61.0012 136.386 61.0217 136.233 61.0076C134.69 60.8589 133.637 60.1439 133.074 58.8626C133.016 58.729 132.991 58.5843 133.003 58.4402C133.014 58.2961 133.061 58.1564 133.139 58.0323L135.015 55.034C136.579 54.0192 137.229 52.843 136.964 51.5053C136.942 51.3939 136.888 51.2904 136.807 51.2063C136.727 51.1222 136.624 51.0607 136.509 51.0287L134.925 50.5981C134.766 50.5531 134.626 50.4598 134.528 50.3326C134.429 50.2055 134.378 50.0513 134.38 49.8936C134.383 49.736 134.44 49.5835 134.543 49.4595C134.646 49.3355 134.789 49.2467 134.95 49.2066C137.89 48.5045 139.568 49.7012 139.985 52.7969Z" fill="#030F40"/>
<path d="M58.0023 50.2452C58.1234 50.7228 57.7715 51.0625 56.9468 51.2643C54.8155 51.8182 55.8441 54.5431 57.2762 55.193C57.4689 55.2816 57.6527 55.2693 57.8275 55.1561C58.5357 54.713 58.9929 54.1567 59.1991 53.4871L59.3671 53.2434C59.5419 52.9973 59.6607 53.0243 59.7235 53.3247C60.4899 56.7758 59.663 59.5426 57.2426 61.6251C57.0628 61.7799 56.8557 61.8921 56.6344 61.9546C56.4132 62.0171 56.1826 62.0286 55.9571 61.9884C55.7316 61.9482 55.5161 61.857 55.3242 61.7208C55.1324 61.5845 54.9683 61.4061 54.8424 61.1967C53.3677 58.7549 52.7783 55.897 53.0741 52.6231C53.6187 50.2379 56.2879 47.3061 58.0023 50.2452Z" fill="#030F40"/>
<path d="M76.4527 55.0557L77.9261 58.3002C77.9813 58.4192 78.0063 58.5511 77.9987 58.6835C77.9911 58.8158 77.9512 58.9444 77.8828 59.057C76.9221 60.6755 75.882 61.9793 74.2136 60.0461C71.8012 57.2487 71.3606 54.0116 72.8918 50.335C74.1823 48.6066 75.6533 48.5716 77.305 50.2301C77.3604 50.2847 77.3977 50.3557 77.4118 50.4333C77.4259 50.511 77.416 50.5915 77.3836 50.6638C77.3511 50.7361 77.2976 50.7966 77.2305 50.8371C77.1634 50.8775 77.0859 50.8958 77.0088 50.8895C73.968 50.5973 74.3581 53.8568 76.4527 55.0557Z" fill="#030F40"/>
<path d="M159.022 61.5606C159.089 61.5941 159.156 61.6252 159.223 61.6539C159.3 61.6922 159.31 61.74 159.253 61.7975C158.25 62.7495 157.053 63.1418 155.664 62.9743C154.877 62.8787 154.172 62.5079 153.549 61.8621C152.792 61.0727 152.074 60.3048 152.028 59.1782C151.935 57.1594 152.072 55.1477 152.437 53.1432C152.473 52.9614 152.538 52.9518 152.63 53.1145C153.464 54.6262 153.711 56.1427 153.371 57.6641C153.32 57.9033 153.384 58.1066 153.564 58.274L153.881 58.5682C153.943 58.6247 154.021 58.6641 154.106 58.6819C154.19 58.6998 154.279 58.6955 154.361 58.6695C154.444 58.6435 154.517 58.5968 154.572 58.5346C154.628 58.4724 154.664 58.3971 154.676 58.3171C154.882 57.0158 155.471 55.8677 156.444 54.8726C157.071 54.2315 157.071 53.4781 156.444 52.6122C156.284 52.3921 156.063 52.2581 155.78 52.2103L154.498 52.0022C154.443 51.9935 154.39 51.9727 154.345 51.9415C154.3 51.9103 154.264 51.8696 154.239 51.823C154.215 51.7763 154.203 51.7252 154.206 51.6739C154.208 51.6226 154.223 51.5727 154.251 51.5286C155.291 49.8637 156.572 49.5695 158.096 50.6459C159.771 51.83 159.886 54.1048 159.987 56.2145C160.074 58.0037 159.729 59.7284 158.952 61.3884C158.916 61.465 158.939 61.5224 159.022 61.5606Z" fill="#030F40"/>
<path d="M57.3801 51.0119L59.14 51.2194C59.3837 51.249 59.5768 51.3626 59.719 51.5602C59.9983 51.9504 60.0694 52.5109 59.9323 53.2419C59.6986 53.9137 59.1806 54.4718 58.3781 54.9163C58.18 55.0299 57.9718 55.0423 57.7534 54.9534C56.1306 54.3014 54.965 51.5676 57.3801 51.0119Z" fill="white"/>
<path d="M69.6454 78.8788C67.1714 76.8432 63.1211 76.7326 60.9186 78.4363C59.8124 79.287 59.2014 79.0288 59.0858 77.6619C58.8092 74.4609 58.1329 71.3483 57.0568 68.3243C56.9311 67.9752 57.0141 67.9187 57.3057 68.1547C62.2838 72.1523 68.4839 72.4104 73.6204 68.3391C74.0176 68.0244 74.1031 68.0908 73.8768 68.5383C72.3029 71.7147 71.2143 75.046 70.6109 78.5322C70.5925 78.6323 70.5477 78.7259 70.4808 78.8038C70.4139 78.8817 70.3274 78.9411 70.2298 78.9762C70.1321 79.0112 70.0269 79.0207 69.9244 79.0036C69.8218 78.9866 69.7257 78.9435 69.6454 78.8788Z" fill="#5B0200"/>
<path d="M139.116 75.4423C138.736 73.2501 137.915 71.3622 137.064 69.2948C136.935 68.9724 137.002 68.9255 137.265 69.1544C142.407 73.6116 147.938 74.0121 153.859 70.3558C153.977 70.283 154.021 70.3142 153.99 70.4494L151.551 80.1232C151.319 81.0437 150.805 81.2491 150.01 80.7394C146.836 78.7059 143.689 78.7085 140.571 80.7473C140.511 80.7858 140.442 80.8085 140.371 80.8132C140.3 80.818 140.228 80.8046 140.164 80.7743C140.099 80.744 140.043 80.6978 140 80.6399C139.958 80.582 139.931 80.5143 139.921 80.443C139.678 78.7995 139.41 77.1326 139.116 75.4423Z" fill="#5B0200"/>
</svg>
