<svg width="520" height="605" viewBox="0 0 520 605" fill="none" xmlns="http://www.w3.org/2000/svg">
<path d="M170.069 163.933C170.021 164.001 169.998 164.084 170.004 164.168C170.01 164.251 170.045 164.33 170.103 164.39C170.161 164.451 170.239 164.489 170.322 164.499C170.405 164.508 170.489 164.488 170.559 164.443C189.739 151.613 201.039 129.793 210.579 109.283C221.372 86.0761 229.869 68.3461 236.069 56.0927C241.049 46.2527 247.259 36.8261 254.699 27.8127C277.539 0.122734 306.359 -5.86727 340.239 5.31273C340.406 5.36607 340.506 5.4394 340.539 5.53273C340.579 5.65273 340.539 5.6994 340.419 5.67273C290.719 -4.66727 266.149 40.7027 251.939 78.4327C245.159 96.4627 239.819 115.183 237.949 134.123C237.369 139.993 238.269 149.083 241.809 153.533C254.299 169.213 281.139 130.043 286.339 121.943C291.979 113.133 294.469 102.853 306.069 99.9927C312.609 98.3727 318.829 100.743 322.729 106.123C322.811 106.237 322.919 106.33 323.044 106.394C323.17 106.457 323.309 106.489 323.449 106.487C323.59 106.485 323.728 106.449 323.852 106.382C323.975 106.315 324.081 106.219 324.159 106.103C328.689 99.4427 334.129 95.0927 342.599 95.9827C342.725 95.9974 342.844 96.0493 342.941 96.1317C343.037 96.214 343.107 96.3233 343.141 96.4455C343.176 96.5677 343.173 96.6973 343.133 96.8179C343.094 96.9385 343.019 97.0446 342.919 97.1227C333.559 104.483 329.009 120.343 328.039 131.623C327.669 136.043 328.149 144.923 333.249 146.583C333.569 146.692 333.917 146.67 334.219 146.523C341.469 143.043 349.599 130.603 353.439 123.853C358.029 115.783 362.759 107.803 367.019 99.5527C367.172 99.2461 367.146 98.9594 366.939 98.6927C365.859 97.2827 364.209 96.3227 363.309 95.1527C358.779 89.2727 359.499 80.2527 365.219 75.3627C367.086 73.7694 369.039 73.2127 371.079 73.6927C379.239 75.6227 375.629 88.6727 373.119 93.5427C373.04 93.6975 372.993 93.8664 372.98 94.0394C372.967 94.2124 372.989 94.3861 373.044 94.5502C373.099 94.7142 373.186 94.8654 373.3 94.9946C373.414 95.1239 373.554 95.2286 373.709 95.3027C378.376 97.4961 382.216 100.759 385.229 105.093C393.279 116.683 374.789 139.973 380.689 147.073C384.379 151.503 391.939 145.683 395.059 142.533C401.026 136.519 406.353 129.993 411.039 122.953C417.539 113.183 419.069 93.9627 435.209 95.4527C435.335 95.4656 435.455 95.5128 435.556 95.5891C435.657 95.6655 435.735 95.7682 435.781 95.8858C435.827 96.0035 435.841 96.1317 435.819 96.2564C435.798 96.381 435.742 96.4974 435.659 96.5927C427.739 105.543 423.309 117.893 419.549 129.113C417.769 134.433 413.329 149.953 423.869 147.983C433.719 146.143 448.559 120.173 453.579 110.843C459.529 99.7927 475.219 94.1327 483.739 106.163C483.834 106.296 483.961 106.403 484.108 106.475C484.256 106.547 484.418 106.58 484.581 106.572C484.744 106.564 484.901 106.515 485.039 106.429C485.177 106.344 485.29 106.225 485.369 106.083C489.362 98.9427 495.529 95.5294 503.869 95.8427C503.991 95.8461 504.109 95.8873 504.207 95.9607C504.305 96.0341 504.377 96.136 504.415 96.2523C504.452 96.3686 504.452 96.4937 504.415 96.6102C504.379 96.7267 504.307 96.8289 504.209 96.9027C494.249 104.653 489.639 121.113 489.079 133.123C488.869 137.463 489.819 149.503 497.119 145.633C498.466 144.919 500.739 142.606 503.939 138.693C508.432 133.199 512.533 127.429 516.239 121.383C516.929 120.253 517.819 119.563 519.119 119.983C519.266 120.029 519.401 120.109 519.512 120.216C519.623 120.322 519.709 120.453 519.762 120.598C519.815 120.743 519.834 120.898 519.818 121.051C519.802 121.204 519.751 121.352 519.669 121.483C515.083 128.776 510.302 135.883 505.329 142.803C501.809 147.703 493.049 156.573 486.329 153.213C480.359 150.223 478.319 139.533 478.779 133.873C479.039 130.699 478.476 130.546 477.089 133.413C475.423 136.853 473.082 140.649 470.069 144.803C465.699 150.813 456.109 156.263 449.669 150.103C444.799 145.433 445.249 136.973 446.019 130.963C446.036 130.861 446.016 130.757 445.962 130.669C445.908 130.581 445.825 130.515 445.726 130.483C445.628 130.452 445.522 130.457 445.427 130.497C445.332 130.537 445.255 130.61 445.209 130.703C440.539 139.093 427.629 158.013 415.819 153.623C407.079 150.373 407.899 138.523 409.669 131.203C409.696 131.103 409.687 130.997 409.642 130.904C409.597 130.811 409.521 130.737 409.426 130.696C409.331 130.655 409.225 130.649 409.127 130.679C409.028 130.71 408.944 130.775 408.889 130.863C404.509 137.483 399.419 143.646 393.619 149.353C388.769 154.123 381.249 157.643 374.409 153.833C362.729 147.323 373.429 127.123 376.079 118.593C378.259 111.613 378.359 104.813 370.779 101.263C370.253 101.016 369.842 101.146 369.549 101.653C364.139 110.953 358.689 121.453 353.439 129.523C348.549 137.013 340.809 150.173 332.009 153.273C320.469 157.323 317.549 141.163 317.419 132.903C317.399 131.776 317.123 131.709 316.589 132.703C312.479 140.373 307.249 150.303 298.069 152.543C294.716 153.363 291.826 152.813 289.399 150.893C283.519 146.233 284.559 136.243 285.009 130.363C285.017 130.286 284.999 130.208 284.957 130.143C284.915 130.078 284.852 130.029 284.779 130.005C284.705 129.98 284.625 129.981 284.553 130.008C284.48 130.035 284.419 130.086 284.379 130.153C276.269 142.333 266.049 155.683 253.319 163.263C242.649 169.613 230.979 164.463 227.929 152.603C225.343 142.549 224.939 132.379 226.719 122.093C231.529 94.3427 241.489 69.2227 255.269 44.9827C265.659 26.7027 279.599 10.7527 300.089 4.37273C300.157 4.35204 300.217 4.30916 300.258 4.25087C300.299 4.19259 300.319 4.12226 300.316 4.05104C300.313 3.97981 300.285 3.91178 300.239 3.85774C300.192 3.8037 300.129 3.76674 300.059 3.75274C299.326 3.62607 298.513 3.67606 297.619 3.90273C284.753 7.1694 273.826 13.3194 264.839 22.3527C255.093 32.1527 246.789 43.9161 239.929 57.6427C230.236 77.0361 220.826 96.5761 211.699 116.263C201.549 138.143 184.559 168.873 157.969 172.663C157.869 172.676 157.768 172.655 157.682 172.602C157.596 172.55 157.531 172.47 157.497 172.375C157.463 172.28 157.463 172.177 157.496 172.082C157.529 171.987 157.594 171.906 157.679 171.853C168.959 164.913 173.469 141.313 175.629 126.793C177.703 112.866 179.793 98.9394 181.899 85.0127C184.109 70.4027 186.589 58.7827 190.909 46.0927C193.929 37.2061 198.879 29.6461 205.759 23.4127C205.782 23.3901 205.797 23.3601 205.8 23.3279C205.804 23.2957 205.796 23.2633 205.779 23.2362C205.761 23.2091 205.734 23.1889 205.703 23.1792C205.673 23.1694 205.639 23.1707 205.609 23.1827C203.142 24.4427 200.932 26.1261 198.979 28.2327C179.269 49.5327 169.449 78.3127 156.159 104.003C147.339 121.083 139.729 136.123 128.189 150.043C122.996 156.309 118.196 160.899 113.789 163.813C99.4192 173.323 80.4992 175.563 65.6892 165.573C65.4335 165.4 65.1365 165.296 64.8278 165.274C64.519 165.251 64.2093 165.309 63.9292 165.443C47.3892 173.313 17.0492 180.583 4.54917 162.173C-2.32083 152.063 -0.660837 138.493 4.56916 127.953C10.1625 116.666 17.8225 107.549 27.5492 100.603C30.3358 98.6094 30.3992 98.6927 27.7392 100.853C14.4692 111.633 -1.19084 134.463 6.03916 152.853C11.6292 167.073 28.2392 168.423 41.6292 164.633C47.1825 163.066 52.5458 161.129 57.7192 158.823C57.836 158.771 57.9408 158.695 58.0271 158.6C58.1133 158.506 58.1791 158.395 58.2204 158.274C58.2617 158.153 58.2776 158.024 58.2671 157.897C58.2565 157.769 58.2198 157.645 58.1592 157.533C53.6725 149.126 51.8058 140.159 52.5592 130.633C54.0192 112.153 60.1925 95.4494 71.0792 80.5227C71.5258 79.9094 71.5592 79.1327 71.1792 78.1927C68.6692 72.0027 68.0292 65.4627 69.4492 58.7627C75.4092 30.6227 104.159 13.1627 130.409 8.47273C155.549 3.98273 182.369 7.79274 206.439 16.2127C207.006 16.4127 206.989 16.5127 206.389 16.5127H205.729C205.502 16.5127 205.276 16.4794 205.049 16.4127C186.589 11.2394 167.786 9.44607 148.639 11.0327C126.619 12.8527 103.549 21.9727 88.5992 39.3627C81.5292 47.5927 75.0892 60.0227 76.7992 71.2027C76.9792 72.3827 77.4658 72.5227 78.2592 71.6227C88.1892 60.3727 101.349 51.3627 116.889 51.9127C125.099 52.1927 130.939 56.8427 133.519 64.7127C139.399 82.6927 126.429 104.533 116.539 118.853C104.429 136.403 89.2592 151.703 70.2492 161.893C69.7158 162.179 69.6025 162.579 69.9092 163.093C69.9558 163.173 70.1958 163.309 70.6292 163.503C81.5892 168.289 91.9658 167.286 101.759 160.493C121.589 146.743 134.979 121.443 146.779 97.3927C153.053 84.6061 159.296 71.8027 165.509 58.9827C171.099 47.4427 181.529 32.2927 191.899 25.5727C198.526 21.2794 206.109 19.0061 214.649 18.7527C214.77 18.752 214.887 18.7895 214.985 18.8598C215.083 18.9301 215.156 19.0296 215.194 19.144C215.232 19.2585 215.232 19.3819 215.195 19.4967C215.159 19.6114 215.086 19.7116 214.989 19.7827C209.159 23.8127 205.469 28.9227 203.039 35.9027C200.033 44.5494 198.059 54.0427 197.119 64.3827C196.059 76.0561 194.896 87.7227 193.629 99.3827C191.609 118.013 187.689 136.683 178.379 153.143C176.269 156.863 172.719 160.233 170.069 163.933ZM93.9392 90.9327C94.0325 90.9927 94.0958 91.0561 94.1292 91.1227C94.1446 91.1522 94.1541 91.1845 94.1569 91.2176C94.1597 91.2508 94.1559 91.2842 94.1457 91.3159C94.1354 91.3475 94.1189 91.3768 94.0972 91.4021C94.0755 91.4273 94.049 91.4479 94.0192 91.4627C93.8858 91.5294 93.7525 91.5261 93.6192 91.4527C86.3192 91.0794 80.0625 88.4194 74.8492 83.4727C74.7984 83.4255 74.7383 83.3896 74.6726 83.3673C74.607 83.345 74.5374 83.3369 74.4684 83.3435C74.3994 83.3501 74.3326 83.3713 74.2724 83.4057C74.2122 83.44 74.16 83.4867 74.1192 83.5427C60.3492 102.693 48.0392 133.103 62.0192 155.553C62.2125 155.866 62.4725 155.939 62.7992 155.773C87.4892 143.263 107.749 117.723 119.039 92.9727C122.312 85.8061 123.539 78.3127 122.719 70.4927C121.349 57.4127 107.339 57.2827 98.1492 62.1527C90.6625 66.1194 84.1925 71.3861 78.7392 77.9527C78.638 78.0754 78.5747 78.2249 78.5569 78.3829C78.5392 78.5409 78.5677 78.7007 78.6392 78.8427C79.9858 81.5094 81.7192 83.7994 83.8392 85.7127C86.5192 88.1427 90.4892 89.2927 93.9392 90.9327ZM371.309 91.8127L372.419 80.8727C372.43 80.7602 372.397 80.6477 372.326 80.5597C372.255 80.4717 372.152 80.4153 372.039 80.4027L371.599 80.3527C370.468 80.2393 369.328 80.6759 368.43 81.5665C367.532 82.4571 366.949 83.729 366.809 85.1027L366.659 86.5427C366.521 87.916 366.837 89.278 367.539 90.3298C368.24 91.3815 369.269 92.0372 370.399 92.1527L370.839 92.2027C370.896 92.2082 370.953 92.2025 371.007 92.1858C371.061 92.1692 371.112 92.1419 371.155 92.1057C371.199 92.0694 371.235 92.0249 371.262 91.9746C371.288 91.9243 371.304 91.8693 371.309 91.8127ZM299.569 120.333C296.363 127.273 295.116 134.106 295.829 140.833C296.409 146.253 300.469 147.533 304.579 144.373C306.786 142.679 308.583 140.696 309.969 138.423C313.869 132.016 317.246 124.913 320.099 117.113C320.959 114.759 321.516 112.783 321.769 111.183C321.821 110.84 321.754 110.494 321.579 110.203C319.192 106.343 316.192 104.799 312.579 105.573C306.289 106.913 302.219 114.623 299.569 120.333ZM473.459 105.523C462.139 107.913 447.849 144.923 462.429 146.283C462.778 146.315 463.125 146.227 463.409 146.033C473.209 139.403 479.359 122.693 482.459 112.793C483.979 107.943 477.229 104.733 473.459 105.523Z" fill="white"/>
<path d="M220.837 258.121C225.59 255.014 225.383 254.681 220.217 257.121C209.407 262.231 201.867 268.911 193.317 278.601C188.507 284.061 183.537 289.591 179.287 295.601C167.413 312.361 155.397 329.021 143.237 345.581C143.03 345.867 143.033 346.147 143.247 346.421C150.7 355.901 155.447 366.597 157.487 378.511C157.833 380.544 157.613 380.604 156.827 378.691C152.687 368.591 147.097 359.361 140.057 351.001C139.98 350.91 139.884 350.838 139.776 350.79C139.668 350.742 139.55 350.719 139.431 350.723C139.312 350.727 139.195 350.757 139.088 350.812C138.982 350.867 138.889 350.945 138.817 351.041C130.137 362.594 120.43 373.341 109.697 383.281C99.2066 392.991 82.3966 401.461 67.9866 400.081C61.7332 399.481 55.8066 397.077 50.2066 392.871C49.5132 392.351 48.5966 392.321 47.4566 392.781C35.6666 397.481 16.8166 399.831 6.55658 391.331C-4.84342 381.891 0.67658 363.081 7.64658 351.991C19.6466 332.931 39.8266 320.611 61.6966 316.291C62.8066 316.071 64.0466 315.061 64.7766 314.021C80.3566 292.101 103.287 271.051 129.417 263.751C136.267 261.841 147.467 261.121 153.067 266.371C167.967 280.341 137.637 317.891 127.437 329.591C127.341 329.7 127.269 329.827 127.223 329.966C127.178 330.104 127.161 330.25 127.173 330.395C127.185 330.54 127.226 330.682 127.294 330.812C127.361 330.942 127.454 331.057 127.567 331.151L134.897 337.191C135.037 337.305 135.2 337.39 135.375 337.439C135.55 337.488 135.732 337.501 135.911 337.477C136.091 337.452 136.263 337.391 136.417 337.297C136.571 337.203 136.704 337.078 136.807 336.931C148.18 320.737 160.017 304.814 172.317 289.161C183.727 274.631 199.617 260.811 218.127 255.061C219.073 254.761 220.32 254.687 221.867 254.841C223.773 255.021 225.627 254.774 227.427 254.101C227.907 253.921 227.9 253.757 227.407 253.611C221.957 252.011 214.907 250.931 210.897 250.081C199.423 247.661 187.94 245.281 176.447 242.941C160.867 239.767 148.71 237.911 139.977 237.371C118.697 236.051 95.7566 238.451 77.8866 250.451C63.0766 260.401 51.2866 276.501 44.8166 292.851C44.1099 294.644 43.9599 294.597 44.3666 292.711C48.5666 273.391 59.9066 254.301 75.9266 242.441C94.5766 228.631 116.447 227.571 138.977 230.061C164.987 232.931 192.627 241.981 218.757 249.341C225.997 251.381 234.887 253.011 242.797 255.391C242.842 255.405 242.88 255.436 242.905 255.476C242.929 255.516 242.939 255.564 242.932 255.611C242.925 255.658 242.901 255.701 242.865 255.732C242.83 255.763 242.784 255.78 242.737 255.781C220.877 254.741 208.477 284.971 202.877 301.611C196.577 320.291 190.73 339.117 185.337 358.091C181.903 370.157 177.733 380.407 172.827 388.841C167.12 398.654 158.38 403.464 146.607 403.271C145.933 403.257 145.903 403.114 146.517 402.841C153.147 399.841 157.617 392.771 160.937 385.781C164.803 377.654 168.163 369.317 171.017 360.771C177.69 340.764 184.8 320.911 192.347 301.211C197.737 287.131 207.877 266.571 220.837 258.121ZM107.347 320.871C110.9 322.224 114.437 323.681 117.957 325.241C118.27 325.381 118.54 325.324 118.767 325.071C125.927 316.971 154.967 280.361 141.817 270.641C135.847 266.231 119.207 272.131 113.197 275.281C95.1099 284.767 80.4732 297.784 69.2866 314.331C68.8399 314.991 69.0133 315.297 69.8066 315.251C82.9533 314.484 95.4666 316.357 107.347 320.871ZM63.2266 322.981C53.2066 338.171 40.2966 366.481 49.2166 384.451C49.5499 385.124 50.0599 385.307 50.7466 385.001C62.7666 379.551 71.6866 372.411 82.6266 362.761C93.4199 353.241 103.633 342.961 113.267 331.921C113.86 331.234 113.747 330.694 112.927 330.301C103.093 325.574 92.6466 322.801 81.5866 321.981C76.5966 321.611 70.6366 321.941 65.1066 321.961C64.7346 321.961 64.368 322.054 64.0398 322.232C63.7116 322.41 63.4321 322.667 63.2266 322.981ZM45.3466 386.741C36.9166 366.471 48.0766 340.911 58.3666 323.391C58.3977 323.339 58.4123 323.279 58.4087 323.218C58.405 323.158 58.3833 323.1 58.3461 323.051C58.3089 323.002 58.2579 322.964 58.1994 322.943C58.1408 322.922 58.0773 322.917 58.0166 322.931C34.7866 328.331 5.35658 347.911 4.15658 374.771C3.85658 381.441 6.40658 386.471 12.5166 389.021C22.7566 393.301 34.2866 391.701 44.7266 388.121C44.8613 388.074 44.985 388 45.0901 387.904C45.1952 387.808 45.2795 387.692 45.3376 387.562C45.3958 387.433 45.4266 387.293 45.4281 387.152C45.4296 387.011 45.4019 386.871 45.3466 386.741ZM60.1666 387.491C58.1333 388.457 56.5599 389.344 55.4466 390.151C55.0532 390.431 55.0699 390.684 55.4966 390.911C60.1766 393.411 64.6732 394.361 68.9866 393.761C83.9566 391.661 96.2866 381.671 107.517 370.611C116.237 362.017 124.257 352.901 131.577 343.261C131.676 343.127 131.721 342.96 131.7 342.795C131.68 342.631 131.596 342.482 131.467 342.381L123.977 336.511C122.943 335.697 121.993 335.787 121.127 336.781C108.387 351.334 94.2799 364.357 78.8066 375.851C71.8666 381.011 65.6533 384.891 60.1666 387.491Z" fill="white"/>
<path d="M483.072 372.604C480.172 374.737 477.085 375.951 473.812 376.244C464.972 372.874 463.522 362.654 463.652 354.204C463.655 354.105 463.624 354.008 463.563 353.93C463.502 353.852 463.415 353.798 463.319 353.778C463.222 353.758 463.121 353.772 463.034 353.819C462.946 353.866 462.879 353.942 462.842 354.034C459.202 362.454 452.732 372.884 443.542 374.794C440.909 375.347 438.515 374.917 436.362 373.504C429.912 369.264 430.842 361.034 430.842 354.554C430.842 354.041 430.692 353.994 430.392 354.414C424.622 362.574 417.172 375.964 405.632 376.334C391.732 376.764 391.402 360.054 391.212 350.814C391.199 350.127 391.015 350.077 390.662 350.664C386.369 357.724 381.485 363.764 376.012 368.784C367.392 376.684 352.442 381.504 343.442 370.744C339.442 365.954 339.142 359.774 339.092 353.814C339.092 353.154 338.902 353.094 338.522 353.634C328.862 367.494 318.792 379.214 303.662 387.124C303.429 387.251 303.109 387.614 302.702 388.214C302.455 388.581 302.252 389.014 302.092 389.514C297.052 405.584 292.212 421.954 286.152 437.664C279.702 454.354 266.932 489.544 245.882 492.444C241.429 493.057 237.275 492.301 233.422 490.174C217.722 481.484 222.212 458.704 228.472 445.754C241.312 419.234 266.012 400.834 291.882 388.174C292.535 387.854 293.149 386.821 293.722 385.074C296.802 375.661 299.679 366.574 302.352 357.814C304.192 351.787 303.792 351.601 301.152 357.254C298.972 361.924 294.092 367.594 290.242 371.244C285.232 375.984 277.612 379.004 271.872 374.434C266.782 370.374 266.032 362.564 266.842 356.314C266.929 355.661 266.772 355.597 266.372 356.124C261.242 362.904 256.942 369.944 250.002 374.574C242.462 379.604 234.272 372.224 233.812 364.604C233.692 362.637 234.372 359.697 235.852 355.784C238.405 349.011 241.109 342.294 243.962 335.634C245.112 332.934 245.682 330.294 245.322 327.634C245.288 327.371 245.187 327.122 245.027 326.911C244.867 326.699 244.655 326.533 244.412 326.429C244.168 326.325 243.902 326.287 243.639 326.317C243.376 326.348 243.125 326.447 242.912 326.604C233.032 333.874 225.082 345.724 219.562 354.054C214.612 361.504 210.332 369.524 210.622 377.184C210.628 377.33 210.596 377.475 210.528 377.605C210.46 377.734 210.358 377.844 210.234 377.923C210.11 378.002 209.967 378.047 209.819 378.054C209.671 378.061 209.524 378.03 209.392 377.964C199.142 372.684 203.352 363.444 207.372 354.054C211.365 344.707 215.162 335.281 218.762 325.774C219.182 324.674 219.539 322.594 219.832 319.534C219.838 319.463 219.86 319.395 219.895 319.334C219.931 319.273 219.98 319.22 220.038 319.18C220.096 319.14 220.163 319.113 220.233 319.102C220.302 319.09 220.374 319.094 220.442 319.114C232.522 322.464 223.482 338.814 220.422 345.264C218.942 348.384 219.155 348.504 221.062 345.624C225.742 338.557 231.452 331.591 238.192 324.724C241.082 321.774 247.682 315.894 251.232 319.554C258.162 326.694 254.872 336.774 251.422 345.004C249.215 350.271 247.042 355.554 244.902 360.854C244.002 363.094 243.482 365.674 244.052 367.784C244.137 368.099 244.283 368.395 244.482 368.654C244.681 368.912 244.929 369.129 245.211 369.292C245.493 369.454 245.805 369.56 246.128 369.601C246.451 369.643 246.778 369.62 247.092 369.534C255.042 367.354 263.692 354.854 267.812 348.094C270.392 343.844 272.962 337.024 276.542 331.824C285.102 319.384 300.912 312.864 311.332 328.334C311.385 328.412 311.456 328.475 311.539 328.519C311.623 328.563 311.716 328.585 311.81 328.584C311.904 328.583 311.996 328.559 312.078 328.513C312.161 328.468 312.231 328.403 312.282 328.324C316.242 322.284 320.852 317.784 328.602 317.954C328.673 317.955 328.743 317.976 328.803 318.014C328.863 318.053 328.911 318.108 328.942 318.173C328.972 318.238 328.983 318.31 328.974 318.381C328.966 318.451 328.937 318.518 328.892 318.574C322.732 326.174 320.292 333.044 316.582 343.844C312.429 355.904 308.652 368.021 305.252 380.194C305.229 380.273 305.23 380.357 305.255 380.435C305.28 380.513 305.328 380.582 305.392 380.633C305.457 380.683 305.535 380.713 305.617 380.719C305.699 380.724 305.781 380.705 305.852 380.664C316.625 374.244 325.569 366.097 332.682 356.224C337.982 348.864 342.862 341.214 347.322 333.274C351.095 326.567 356.229 321.564 362.722 318.264C366.182 316.514 370.642 315.724 374.252 317.454C382.022 321.164 377.612 330.874 373.322 335.594C368.135 341.307 361.392 344.881 353.092 346.314C351.392 346.604 351.132 348.254 350.712 349.664C344.702 369.814 360.432 375.404 374.602 364.114C380.709 359.241 386.225 352.627 391.152 344.274C392.479 342.021 393.612 339.294 394.552 336.094C398.672 322.027 404.022 308.454 410.602 295.374C419.502 277.684 428.882 260.804 440.952 245.004C447.202 236.814 456.492 227.354 467.482 229.244C483.432 231.984 471.872 258.974 467.892 266.454C456.252 288.287 441.122 307.811 422.502 325.024C415.902 331.124 409.262 336.281 402.582 340.494C402.302 340.674 402.115 340.921 402.022 341.234C400.029 347.821 399.579 354.417 400.672 361.024C401.692 367.174 405.882 371.764 412.582 368.284C420.502 364.154 426.002 355.274 430.812 348.034C437.052 338.614 438.752 326.014 451.212 322.284C458.122 320.214 464.612 322.444 468.872 328.174C468.949 328.277 469.049 328.361 469.164 328.419C469.279 328.477 469.405 328.508 469.533 328.509C469.662 328.51 469.788 328.481 469.902 328.425C470.016 328.368 470.116 328.286 470.192 328.184C475.192 321.604 479.602 317.414 488.652 317.944C488.809 317.951 488.96 318.006 489.084 318.102C489.209 318.198 489.3 318.33 489.346 318.48C489.392 318.631 489.391 318.791 489.342 318.941C489.292 319.09 489.198 319.22 489.072 319.314C477.692 327.804 471.932 351.494 475.332 364.604C475.925 366.897 477.399 368.267 479.752 368.714C480.062 368.772 480.381 368.719 480.652 368.564C483.105 367.164 485.235 365.411 487.042 363.304C492.289 357.184 496.992 350.671 501.152 343.764C501.842 342.614 503.052 341.644 504.352 342.044C504.487 342.086 504.61 342.158 504.712 342.256C504.814 342.353 504.893 342.474 504.941 342.607C504.989 342.74 505.006 342.883 504.991 343.025C504.976 343.167 504.928 343.303 504.852 343.424C498.422 353.524 491.862 364.814 483.072 372.604ZM419.632 297.674C413.232 310.814 408.172 321.684 404.232 334.414C404.215 334.466 404.215 334.522 404.232 334.574C404.25 334.626 404.283 334.672 404.327 334.704C404.371 334.736 404.425 334.753 404.479 334.753C404.534 334.753 404.588 334.736 404.632 334.704C426.312 319.784 444.322 298.324 458.002 276.024C463.252 267.464 470.092 255.064 470.722 244.544C471.372 233.654 459.622 239.704 456.192 242.984C440.932 257.524 429.052 278.304 419.632 297.674ZM290.382 331.704C284.052 337.444 272.962 357.854 278.632 366.064C282.512 371.694 289.332 366.364 292.312 362.814C299.165 354.641 304.952 345.201 309.672 334.494C310.245 333.187 309.955 332.057 308.802 331.104C302.582 326.004 296.442 326.204 290.382 331.704ZM354.452 342.784C359.012 342.444 374.692 334.614 371.582 328.294C371.449 328.014 371.239 327.817 370.952 327.704C364.932 325.304 356.072 337.754 354.062 342.224C354.034 342.287 354.023 342.355 354.03 342.424C354.037 342.492 354.061 342.557 354.1 342.613C354.139 342.669 354.192 342.715 354.254 342.744C354.315 342.774 354.384 342.788 354.452 342.784ZM455.432 361.464C460.542 353.634 465.292 343.094 467.902 333.934C467.992 333.617 467.967 333.277 467.832 332.974C465.272 327.344 459.722 325.814 454.782 329.444C447.292 334.944 438.042 356.204 442.512 365.234C446.062 372.404 453.102 365.044 455.432 361.464ZM275.982 437.444C281.782 423.417 286.709 409.164 290.762 394.684C290.929 394.084 290.735 393.927 290.182 394.214C267.152 406.184 245.432 422.824 233.702 446.424C229.582 454.714 227.002 465.714 229.262 474.834C231.152 482.454 237.112 488.634 244.922 485.464C247.182 484.544 249.625 482.731 252.252 480.024C263.452 468.454 269.392 453.344 275.982 437.444Z" fill="white"/>
<path d="M86.34 507.349L90.56 505.109C90.6888 505.04 90.8319 505.003 90.9777 505C91.1235 504.997 91.268 505.029 91.3994 505.092C91.5308 505.155 91.6455 505.249 91.7342 505.364C91.8229 505.48 91.8831 505.615 91.91 505.759L92.07 506.649C92.1043 506.841 92.0774 507.038 91.9931 507.214C91.9087 507.39 91.7712 507.535 91.6 507.629L86.06 510.629C85.8749 510.73 85.661 510.765 85.4534 510.728C85.2458 510.692 85.0567 510.586 84.9172 510.427C84.7777 510.269 84.6961 510.069 84.6857 509.858C84.6753 509.647 84.7368 509.44 84.86 509.269L86.01 507.629C86.0964 507.511 86.2095 507.415 86.34 507.349Z" fill="white"/>
<path d="M3.4202 529.449L3.6302 538.209C3.64353 538.589 3.4602 538.779 3.0802 538.779L0.700201 538.819C0.626672 538.82 0.553606 538.806 0.485167 538.779C0.416728 538.752 0.354258 538.711 0.301329 538.659C0.248399 538.607 0.206041 538.545 0.17668 538.476C0.147318 538.407 0.131525 538.333 0.130201 538.259L0.00020408 513.239C-0.00646259 512.919 0.150205 512.739 0.470205 512.699C5.43687 512.092 9.51687 512.229 12.7102 513.109C17.9802 514.569 20.0102 520.589 16.7802 524.899C13.8102 528.849 8.3402 528.309 3.8902 528.899C3.75613 528.916 3.63345 528.982 3.54642 529.084C3.4594 529.186 3.41435 529.316 3.4202 529.449ZM3.4902 516.409L3.4502 524.789C3.44888 524.921 3.4737 525.053 3.52324 525.176C3.57279 525.299 3.64608 525.411 3.73894 525.506C3.8318 525.6 3.9424 525.676 4.06444 525.728C4.18648 525.78 4.31756 525.807 4.4502 525.809L9.5202 525.829C10.1796 525.833 10.8333 525.718 11.444 525.49C12.0547 525.263 12.6104 524.927 13.0794 524.503C13.5483 524.079 13.9214 523.574 14.1772 523.017C14.433 522.46 14.5665 521.863 14.5702 521.259V520.059C14.5777 518.839 14.0562 517.666 13.1205 516.798C12.1847 515.929 10.9113 515.437 9.5802 515.429L4.5102 515.409C4.37756 515.407 4.24597 515.432 4.12292 515.482C3.99988 515.531 3.8878 515.604 3.79308 515.697C3.69836 515.79 3.62287 515.901 3.5709 516.023C3.51893 516.145 3.49151 516.276 3.4902 516.409Z" fill="#F0F0F0"/>
<path d="M32.7886 539.043C29.5117 538.882 26.4378 537.325 24.243 534.713C22.0482 532.101 20.9122 528.648 21.0851 525.114C21.1706 523.364 21.575 521.647 22.2749 520.061C22.9749 518.475 23.9568 517.051 25.1646 515.87C26.3724 514.689 27.7824 513.774 29.3142 513.177C30.846 512.581 32.4694 512.315 34.092 512.394C37.3688 512.555 40.4427 514.112 42.6375 516.724C44.8324 519.336 45.9683 522.789 45.7955 526.323C45.7099 528.073 45.3056 529.79 44.6056 531.376C43.9056 532.962 42.9237 534.386 41.7159 535.567C40.5081 536.749 39.0981 537.663 37.5663 538.26C36.0346 538.856 34.4111 539.122 32.7886 539.043ZM41.828 523.317C41.8422 521.283 41.0477 519.326 39.6194 517.878C38.1911 516.429 36.2459 515.608 34.2118 515.594L32.8518 515.584C31.8445 515.577 30.8458 515.768 29.9125 516.147C28.9793 516.526 28.1298 517.085 27.4127 517.793C26.6955 518.5 26.1246 519.341 25.7327 520.269C25.3407 521.197 25.1354 522.193 25.1284 523.2L25.0926 528.34C25.0784 530.374 25.8728 532.331 27.3011 533.779C28.7294 535.228 30.6746 536.049 32.7088 536.064L34.0688 536.073C35.076 536.08 36.0747 535.889 37.008 535.51C37.9412 535.131 38.7907 534.572 39.5079 533.864C40.225 533.157 40.7959 532.316 41.1878 531.388C41.5798 530.46 41.7851 529.464 41.7922 528.457L41.828 523.317Z" fill="#F0F0F0"/>
<path d="M50.5801 513.359C50.5788 513.24 50.6008 513.123 50.6448 513.013C50.6888 512.904 50.754 512.804 50.8366 512.719C50.9193 512.635 51.0178 512.567 51.1265 512.521C51.2352 512.474 51.3519 512.45 51.4701 512.449L59.3101 512.409C62.6138 512.391 65.7886 513.587 68.1364 515.732C70.4842 517.877 71.8128 520.797 71.8301 523.849L71.8501 527.269C71.8588 528.78 71.5448 530.279 70.9262 531.68C70.3077 533.08 69.3966 534.354 68.2451 535.43C67.0936 536.505 65.7241 537.36 64.2151 537.947C62.706 538.534 61.0869 538.84 59.4501 538.849L51.6101 538.889C51.4919 538.89 51.3746 538.868 51.2649 538.824C51.1552 538.78 51.0553 538.715 50.9708 538.632C50.8863 538.549 50.8189 538.451 50.7725 538.342C50.726 538.234 50.7015 538.117 50.7001 537.999L50.5801 513.359ZM54.1401 516.389L54.1001 535.109C54.1001 535.384 54.2097 535.649 54.4047 535.844C54.5998 536.039 54.8643 536.149 55.1401 536.149L59.3901 536.159C60.561 536.161 61.7209 535.928 62.8036 535.473C63.8862 535.017 64.8703 534.348 65.6997 533.504C66.5291 532.66 67.1874 531.657 67.637 530.552C68.0866 529.448 68.3188 528.264 68.3201 527.069V524.469C68.3229 522.057 67.3882 519.743 65.7212 518.034C64.0543 516.326 61.7916 515.364 59.4301 515.359L55.1801 515.349C54.9043 515.349 54.6398 515.458 54.4447 515.653C54.2497 515.848 54.1401 516.113 54.1401 516.389Z" fill="#F0F0F0"/>
<path d="M86.5536 539.012C84.9362 538.876 83.3634 538.398 81.9252 537.604C80.487 536.811 79.2114 535.717 78.1714 534.387C77.1313 533.056 76.3471 531.515 75.8636 529.85C75.3801 528.185 75.2066 526.43 75.3532 524.684C75.4998 522.939 75.9636 521.237 76.718 519.676C77.4724 518.115 78.5027 516.726 79.7501 515.587C80.9974 514.449 82.4374 513.584 83.9879 513.041C85.5383 512.499 87.1688 512.289 88.7862 512.425C90.4037 512.561 91.9764 513.039 93.4146 513.833C94.8529 514.627 96.1284 515.72 97.1685 517.05C98.2085 518.381 98.9927 519.922 99.4762 521.587C99.9598 523.252 100.133 525.007 99.9866 526.753C99.84 528.499 99.3763 530.2 98.6219 531.761C97.8675 533.322 96.8372 534.711 95.5898 535.85C94.3424 536.988 92.9024 537.853 91.352 538.396C89.8016 538.938 88.1711 539.148 86.5536 539.012ZM95.9477 523.276C95.9299 521.236 95.1027 519.287 93.648 517.858C92.1933 516.428 90.2304 515.635 88.1909 515.653L86.8309 515.665C84.7915 515.683 82.8427 516.51 81.4131 517.965C79.9836 519.419 79.1905 521.382 79.2083 523.422L79.2521 528.441C79.2699 530.481 80.0971 532.43 81.5518 533.859C83.0065 535.289 84.9695 536.082 87.0089 536.064L88.3689 536.052C90.4084 536.034 92.3572 535.207 93.7867 533.752C95.2162 532.298 96.0093 530.335 95.9915 528.295L95.9477 523.276Z" fill="#F0F0F0"/>
<path d="M132.251 538.627C130.633 538.491 129.061 538.012 127.622 537.219C126.184 536.425 124.909 535.332 123.869 534.002C122.829 532.671 122.044 531.13 121.561 529.465C121.077 527.8 120.904 526.045 121.05 524.299C121.197 522.553 121.661 520.852 122.415 519.291C123.17 517.73 124.2 516.341 125.447 515.202C126.695 514.064 128.135 513.199 129.685 512.656C131.236 512.114 132.866 511.904 134.483 512.04C136.101 512.176 137.674 512.654 139.112 513.448C140.55 514.241 141.826 515.335 142.866 516.665C143.906 517.995 144.69 519.537 145.174 521.202C145.657 522.867 145.83 524.622 145.684 526.368C145.537 528.113 145.074 529.815 144.319 531.376C143.565 532.937 142.534 534.326 141.287 535.464C140.04 536.603 138.6 537.468 137.049 538.011C135.499 538.553 133.868 538.762 132.251 538.627ZM141.645 522.89C141.627 520.851 140.8 518.902 139.345 517.473C137.891 516.043 135.928 515.25 133.888 515.268L132.528 515.28C130.489 515.297 128.54 516.125 127.11 517.579C125.681 519.034 124.888 520.997 124.906 523.036L124.949 528.056C124.967 530.096 125.794 532.045 127.249 533.474C128.704 534.904 130.667 535.697 132.706 535.679L134.066 535.667C136.106 535.649 138.054 534.822 139.484 533.367C140.913 531.913 141.707 529.95 141.689 527.91L141.645 522.89Z" fill="#F0F0F0"/>
<path d="M109.01 536.219L120.46 536.189C120.612 536.189 120.758 536.248 120.867 536.355C120.975 536.462 121.037 536.606 121.04 536.759L121.05 538.199C121.051 538.275 121.038 538.35 121.01 538.421C120.982 538.492 120.94 538.557 120.887 538.612C120.834 538.666 120.771 538.71 120.701 538.741C120.631 538.771 120.556 538.787 120.48 538.789L105.42 538.939C105.343 538.94 105.267 538.926 105.195 538.897C105.124 538.869 105.058 538.826 105.003 538.772C104.949 538.718 104.905 538.654 104.875 538.583C104.845 538.512 104.83 538.436 104.83 538.359L104.98 513.139C104.98 512.988 105.038 512.844 105.143 512.735C105.247 512.627 105.39 512.564 105.54 512.559L107.85 512.499C107.928 512.496 108.005 512.509 108.078 512.537C108.151 512.565 108.217 512.607 108.273 512.661C108.329 512.715 108.374 512.78 108.404 512.852C108.434 512.924 108.45 513.001 108.45 513.079L108.43 535.639C108.43 535.792 108.491 535.94 108.6 536.049C108.709 536.157 108.856 536.219 109.01 536.219Z" fill="#F0F0F0"/>
<path d="M165.98 526.859L161.15 526.779C160.704 526.765 160.474 526.535 160.46 526.089L160.44 525.039C160.427 524.405 160.74 524.089 161.38 524.089L169.52 524.119C169.602 524.12 169.682 524.137 169.757 524.169C169.832 524.201 169.899 524.247 169.956 524.304C170.012 524.362 170.057 524.43 170.087 524.504C170.117 524.579 170.132 524.658 170.13 524.739L170.09 536.079C170.09 536.243 170.043 536.406 169.955 536.547C169.867 536.688 169.741 536.803 169.59 536.879C157.17 543.149 146.3 534.829 149.89 521.249C152.09 512.919 162.22 509.819 168.9 514.819C169.102 514.973 169.247 515.19 169.31 515.436C169.373 515.682 169.352 515.942 169.249 516.175C169.146 516.407 168.968 516.598 168.743 516.717C168.518 516.835 168.26 516.875 168.01 516.829C161.16 515.509 155.15 513.199 153.47 522.669C152.72 526.919 152.88 533.829 157.73 535.599C160.53 536.619 163.357 536.449 166.21 535.089C166.345 535.025 166.46 534.924 166.541 534.797C166.623 534.669 166.667 534.521 166.67 534.369L166.77 527.669C166.777 527.135 166.514 526.865 165.98 526.859Z" fill="#F0F0F0"/>
<path d="M189.64 531.819L179.96 531.868C179.607 531.868 179.347 532.025 179.18 532.338C177.93 534.678 177.52 540.338 173.6 538.688C173.47 538.636 173.365 538.533 173.309 538.402C173.253 538.271 173.25 538.123 173.3 537.988L182.33 513.768C182.45 513.455 182.657 513.218 182.95 513.058C185.344 511.752 186.89 512.095 187.59 514.088C190.41 522.055 193.317 529.969 196.31 537.829C196.357 537.954 196.372 538.088 196.354 538.22C196.337 538.353 196.287 538.478 196.21 538.586C196.133 538.694 196.03 538.781 195.912 538.839C195.793 538.897 195.662 538.924 195.53 538.918L193.62 538.829C193.28 538.815 193.047 538.652 192.92 538.338L190.46 532.368C190.392 532.206 190.278 532.067 190.132 531.969C189.986 531.871 189.815 531.819 189.64 531.819ZM180.61 528.639C180.59 528.699 180.584 528.763 180.593 528.826C180.602 528.89 180.626 528.95 180.664 529.002C180.701 529.053 180.75 529.096 180.807 529.125C180.864 529.154 180.927 529.169 180.99 529.168L188.71 529.118C188.776 529.119 188.84 529.104 188.898 529.075C188.956 529.045 189.005 529.002 189.043 528.949C189.08 528.895 189.104 528.834 189.113 528.769C189.121 528.705 189.113 528.639 189.09 528.579L185.15 517.518C185.123 517.439 185.071 517.37 185.002 517.321C184.934 517.273 184.851 517.247 184.767 517.248C184.683 517.249 184.601 517.277 184.533 517.327C184.466 517.378 184.416 517.448 184.39 517.528L180.61 528.639Z" fill="#F0F0F0"/>
<path d="M45.913 564.175C42.433 562.135 32.893 560.325 32.073 566.205C30.993 573.915 50.533 571.685 50.313 583.535C50.213 588.675 47.2963 591.782 41.563 592.855C35.9963 593.902 30.9063 592.852 26.293 589.705C26.1957 589.639 26.1177 589.547 26.0668 589.44C26.0159 589.333 25.9939 589.214 26.003 589.095C26.123 587.868 26.7196 586.998 27.793 586.485C27.9538 586.405 28.1322 586.365 28.3132 586.368C28.4942 586.372 28.6724 586.419 28.833 586.505C32.753 588.645 44.013 591.945 45.153 584.525C46.213 577.645 33.373 576.985 29.463 572.945C26.113 569.475 26.333 563.815 29.763 560.975C34.563 557.005 42.943 557.415 48.243 560.715C49.303 561.382 49.503 562.245 48.843 563.305C48.0563 564.565 47.0797 564.855 45.913 564.175Z" fill="#F0F0F0"/>
<path d="M88.9729 583.665C88.0929 585.785 86.8229 590.925 85.2629 592.245C84.2496 593.098 82.9429 593.152 81.3429 592.405C80.9629 592.232 80.8462 591.948 80.9929 591.555C84.9529 581.008 88.9162 570.632 92.8829 560.425C94.4129 556.475 99.2729 557.825 100.503 561.085C104.136 570.719 107.896 580.719 111.783 591.085C112.143 592.052 111.81 592.585 110.783 592.685C109.55 592.805 108.383 592.645 107.283 592.205C106.956 592.072 106.733 591.835 106.613 591.495L103.933 583.795C103.868 583.608 103.747 583.446 103.585 583.331C103.424 583.216 103.231 583.155 103.033 583.155L89.6829 583.195C89.5315 583.195 89.3833 583.239 89.257 583.323C89.1307 583.407 89.0319 583.526 88.9729 583.665ZM90.9229 578.135C90.8908 578.222 90.8802 578.316 90.892 578.408C90.9037 578.501 90.9375 578.589 90.9905 578.665C91.0434 578.742 91.114 578.804 91.1962 578.848C91.2784 578.891 91.3699 578.914 91.4629 578.915L101.163 578.955C101.257 578.956 101.349 578.934 101.433 578.891C101.517 578.849 101.588 578.786 101.643 578.709C101.697 578.633 101.731 578.544 101.744 578.451C101.756 578.358 101.745 578.263 101.713 578.175L96.9129 564.725C96.8722 564.613 96.7981 564.517 96.7006 564.448C96.6031 564.38 96.4869 564.344 96.3679 564.344C96.2489 564.344 96.1328 564.38 96.0353 564.448C95.9378 564.517 95.8636 564.613 95.8229 564.725L90.9229 578.135Z" fill="#F0F0F0"/>
<path d="M130.253 594.665C132.883 596.125 137.053 598.235 134.383 602.005C132.293 604.955 127.693 604.745 124.853 603.195C124.57 603.047 124.351 602.8 124.239 602.502C124.126 602.203 124.128 601.873 124.243 601.575C124.357 601.277 124.578 601.032 124.862 600.887C125.146 600.741 125.474 600.705 125.783 600.785C127.143 601.105 128.503 601.149 129.863 600.915C130.158 600.861 130.427 600.71 130.626 600.484C130.825 600.259 130.943 599.974 130.96 599.674C130.977 599.374 130.893 599.077 130.721 598.831C130.55 598.584 130.3 598.403 130.013 598.315L126.893 597.405C126.742 597.359 126.61 597.266 126.515 597.141C126.419 597.015 126.366 596.863 126.363 596.705L126.303 593.855C126.299 593.702 126.245 593.555 126.15 593.434C126.055 593.313 125.922 593.226 125.773 593.185C118.379 591.312 114.349 586.458 113.683 578.625C113.143 572.265 114.073 565.675 119.023 561.435C124.453 556.775 133.053 557.475 139.173 560.595C139.307 560.663 139.418 560.769 139.493 560.901C139.567 561.032 139.602 561.183 139.593 561.335C139.513 562.562 139.009 563.558 138.083 564.325C137.962 564.424 137.816 564.487 137.66 564.506C137.504 564.526 137.346 564.501 137.203 564.435C129.243 560.665 121.323 561.515 119.173 571.275C118.399 574.802 118.516 578.178 119.523 581.405C122.313 590.335 130.713 590.155 137.903 586.885C138.042 586.822 138.195 586.798 138.347 586.816C138.498 586.833 138.642 586.892 138.763 586.985C139.716 587.739 140.033 588.722 139.713 589.935C139.626 590.262 139.429 590.509 139.123 590.675C136.416 592.102 133.543 593.002 130.503 593.375C130.358 593.392 130.222 593.456 130.115 593.555C130.008 593.655 129.935 593.785 129.907 593.929C129.88 594.072 129.898 594.221 129.96 594.353C130.022 594.486 130.125 594.595 130.253 594.665Z" fill="#F0F0F0"/>
<path d="M174.866 578.327C174.909 580.223 174.579 582.109 173.893 583.877C173.207 585.644 172.18 587.26 170.87 588.631C169.56 590.002 167.992 591.101 166.257 591.867C164.522 592.632 162.653 593.048 160.758 593.091L158.138 593.15C154.31 593.237 150.603 591.8 147.834 589.154C145.066 586.508 143.461 582.87 143.374 579.042L143.239 573.083C143.196 571.187 143.527 569.302 144.213 567.534C144.898 565.766 145.926 564.15 147.236 562.779C148.546 561.408 150.113 560.309 151.848 559.544C153.583 558.778 155.452 558.362 157.348 558.319L159.967 558.26C163.796 558.173 167.502 559.611 170.271 562.257C173.04 564.902 174.644 568.54 174.731 572.369L174.866 578.327ZM169.6 572.135C169.613 570.862 169.376 569.598 168.9 568.416C168.425 567.234 167.722 566.157 166.831 565.247C165.94 564.337 164.878 563.611 163.706 563.112C162.534 562.612 161.276 562.348 160.002 562.334L158.382 562.317C155.81 562.29 153.332 563.286 151.494 565.086C149.656 566.886 148.608 569.343 148.581 571.915L148.505 579.135C148.492 580.409 148.73 581.673 149.205 582.854C149.68 584.036 150.383 585.113 151.275 586.023C152.166 586.933 153.228 587.659 154.399 588.159C155.571 588.659 156.83 588.923 158.103 588.936L159.723 588.953C162.296 588.98 164.774 587.984 166.612 586.184C168.45 584.384 169.497 581.927 169.524 579.355L169.6 572.135Z" fill="#F0F0F0"/>
<path d="M194.022 559.485C194.022 559.188 194.14 558.903 194.35 558.693C194.561 558.483 194.845 558.365 195.142 558.365L205.232 558.325C209.748 558.31 214.085 559.919 217.288 562.798C220.491 565.676 222.298 569.589 222.312 573.675L222.332 577.195C222.34 579.219 221.906 581.225 221.057 583.098C220.207 584.971 218.958 586.674 217.381 588.111C215.805 589.547 213.931 590.689 211.867 591.47C209.803 592.252 207.589 592.658 205.352 592.665L195.262 592.705C194.965 592.705 194.681 592.587 194.471 592.377C194.26 592.167 194.142 591.882 194.142 591.585L194.022 559.485ZM198.742 563.605L198.942 587.425C198.944 587.567 198.973 587.707 199.029 587.838C199.084 587.968 199.165 588.087 199.266 588.186C199.367 588.285 199.487 588.364 199.618 588.417C199.75 588.47 199.891 588.496 200.032 588.495L205.512 588.445C208.662 588.417 211.673 587.198 213.882 585.054C216.091 582.911 217.318 580.019 217.292 577.015L217.272 573.695C217.26 572.207 216.94 570.736 216.331 569.366C215.723 567.996 214.837 566.754 213.724 565.711C212.612 564.668 211.294 563.845 209.848 563.288C208.401 562.731 206.853 562.451 205.292 562.465L199.812 562.515C199.671 562.516 199.53 562.546 199.4 562.601C199.269 562.657 199.151 562.737 199.052 562.838C198.952 562.94 198.874 563.06 198.821 563.191C198.768 563.323 198.741 563.463 198.742 563.605Z" fill="#F0F0F0"/>
<path d="M431.753 583.235L419.663 583.145C418.436 583.132 417.613 583.705 417.193 584.865L414.613 591.925C414.537 592.133 414.398 592.313 414.216 592.44C414.033 592.567 413.816 592.635 413.593 592.635L410.113 592.655C410.016 592.655 409.921 592.631 409.835 592.586C409.75 592.541 409.676 592.476 409.621 592.396C409.566 592.317 409.531 592.225 409.519 592.129C409.507 592.033 409.519 591.936 409.553 591.845L422.043 559.055C422.169 558.722 422.406 558.509 422.753 558.415C424.506 557.969 426.189 558.122 427.803 558.875C428.117 559.022 428.364 559.287 428.493 559.615L440.703 591.675C440.943 592.309 440.726 592.612 440.053 592.585L436.293 592.475C436.124 592.469 435.961 592.413 435.824 592.313C435.687 592.214 435.582 592.075 435.523 591.915L432.553 583.795C432.491 583.631 432.382 583.489 432.239 583.389C432.096 583.289 431.926 583.235 431.753 583.235ZM419.683 578.115C419.647 578.213 419.636 578.318 419.65 578.421C419.664 578.525 419.702 578.623 419.762 578.708C419.822 578.794 419.901 578.863 419.994 578.911C420.086 578.96 420.188 578.985 420.293 578.985L429.763 578.945C429.867 578.945 429.969 578.92 430.062 578.871C430.154 578.823 430.233 578.754 430.293 578.668C430.353 578.583 430.391 578.485 430.405 578.381C430.419 578.278 430.408 578.173 430.373 578.075L425.593 564.885C425.546 564.761 425.462 564.654 425.352 564.578C425.242 564.503 425.112 564.464 424.979 564.465C424.846 564.466 424.717 564.508 424.608 564.585C424.5 564.662 424.418 564.77 424.373 564.895L419.683 578.115Z" fill="#F0F0F0"/>
<path d="M5.55298 573.155L18.453 573.215C18.6435 573.215 18.8314 573.259 19.0025 573.343C19.1735 573.427 19.3231 573.55 19.4398 573.701C19.5566 573.852 19.6374 574.029 19.676 574.217C19.7147 574.405 19.7102 574.599 19.663 574.785L19.163 576.765C19.063 577.172 18.803 577.375 18.383 577.375L5.85298 577.435C5.62224 577.435 5.40095 577.528 5.23779 577.693C5.07464 577.858 4.98298 578.082 4.98298 578.315L4.99298 587.575C4.99296 587.783 5.07482 587.982 5.22082 588.13C5.36682 588.278 5.5652 588.362 5.77298 588.365L20.913 588.485C21.174 588.488 21.4239 588.591 21.6104 588.774C21.7968 588.956 21.9052 589.204 21.913 589.465L21.973 591.635C21.9863 592.235 21.693 592.532 21.093 592.525L1.71298 592.335C1.36948 592.333 1.03994 592.199 0.792435 591.961C0.544928 591.722 0.398354 591.398 0.38298 591.055C-0.0170198 582.002 -0.103689 572.865 0.122978 563.645C0.169645 561.758 0.306315 560.202 0.532982 558.975C0.563592 558.801 0.654595 558.644 0.789963 558.53C0.925331 558.417 1.09638 558.355 1.27298 558.355L21.023 558.415C21.1924 558.416 21.3563 558.474 21.4873 558.579C21.6184 558.685 21.7086 558.832 21.743 558.995C22.2563 561.368 21.3763 562.568 19.103 562.595C14.6096 562.648 10.123 562.585 5.64298 562.405C5.56121 562.402 5.47973 562.416 5.4034 562.446C5.32706 562.475 5.25743 562.52 5.19865 562.577C5.13988 562.634 5.09315 562.702 5.06125 562.777C5.02935 562.852 5.01293 562.933 5.01298 563.015V572.605C5.00631 572.965 5.18631 573.148 5.55298 573.155Z" fill="#F0F0F0"/>
<path d="M62.6327 581.145L62.6827 591.815C62.6827 592.215 62.4827 592.428 62.0827 592.455L58.5027 592.675C58.016 592.709 57.7727 592.479 57.7727 591.985L57.7627 559.145C57.7624 558.958 57.8338 558.778 57.9622 558.643C58.0905 558.507 58.2661 558.425 58.4527 558.415C64.1327 558.115 72.8827 557.765 77.4727 560.725C82.6727 564.075 82.9127 571.685 79.1427 576.125C75.3727 580.555 68.7127 580.245 63.3227 580.425C63.137 580.433 62.9615 580.512 62.8329 580.646C62.7043 580.781 62.6325 580.959 62.6327 581.145ZM62.5827 563.635L62.5027 574.975C62.5014 575.11 62.5267 575.245 62.5773 575.37C62.6278 575.496 62.7026 575.61 62.7973 575.706C62.892 575.803 63.0048 575.88 63.1293 575.933C63.2538 575.986 63.3874 576.014 63.5227 576.015L68.9527 576.055C69.9272 576.062 70.8932 575.915 71.7955 575.624C72.6978 575.333 73.5188 574.902 74.2115 574.357C74.9043 573.812 75.4552 573.163 75.8329 572.447C76.2106 571.731 76.4076 570.963 76.4127 570.185L76.4327 568.625C76.4431 567.055 75.6714 565.544 74.2874 564.425C72.9034 563.305 71.0205 562.669 69.0527 562.655L63.6227 562.615C63.4874 562.614 63.3532 562.639 63.2278 562.69C63.1023 562.74 62.988 562.815 62.8914 562.91C62.7949 563.004 62.7179 563.117 62.6649 563.242C62.6119 563.366 62.584 563.5 62.5827 563.635Z" fill="#F0F0F0"/>
<path d="M233.523 562.965L233.403 572.535C233.396 572.895 233.573 573.082 233.933 573.095C238.206 573.242 242.423 573.382 246.583 573.515C247.703 573.548 248.093 574.345 247.753 575.905C247.573 576.718 247.066 577.135 246.233 577.155L234.143 577.455C233.975 577.458 233.815 577.525 233.697 577.643C233.579 577.761 233.513 577.92 233.513 578.085L233.363 587.625C233.36 587.817 233.433 588.002 233.566 588.141C233.699 588.279 233.881 588.36 234.073 588.365L248.683 588.735C248.992 588.744 249.291 588.846 249.541 589.028C249.791 589.21 249.98 589.464 250.083 589.755C250.29 590.342 250.196 590.818 249.803 591.185C249.55 591.418 249.133 591.578 248.553 591.665C242.726 592.532 236.38 592.808 229.513 592.495C229.292 592.485 229.084 592.391 228.931 592.232C228.778 592.074 228.693 591.864 228.693 591.645L228.663 559.445C228.663 559.171 228.771 558.908 228.964 558.713C229.157 558.519 229.419 558.408 229.693 558.405C235.803 558.345 242.193 558.765 248.283 558.405C249.463 558.332 250.136 558.968 250.303 560.315C250.337 560.595 250.311 560.879 250.226 561.148C250.142 561.417 250.001 561.665 249.813 561.876C249.625 562.087 249.394 562.255 249.135 562.371C248.877 562.486 248.596 562.546 248.313 562.545L234.013 562.485C233.693 562.485 233.53 562.645 233.523 562.965Z" fill="#F0F0F0"/>
<path d="M288.963 575.315C297.193 578.945 295.703 590.205 286.823 591.785C281.376 592.752 275.833 592.975 270.193 592.455C270.051 592.445 269.919 592.381 269.822 592.275C269.726 592.169 269.672 592.03 269.673 591.885L269.723 559.395C269.723 559.132 269.825 558.88 270.008 558.691C270.191 558.503 270.44 558.393 270.703 558.385C277.693 558.155 296.763 557.035 292.523 570.305C292.19 571.365 290.966 572.758 288.853 574.485C288.787 574.538 288.737 574.607 288.705 574.685C288.674 574.763 288.664 574.848 288.675 574.931C288.686 575.014 288.718 575.094 288.768 575.161C288.819 575.228 288.886 575.281 288.963 575.315ZM274.553 563.355L274.293 572.215C274.287 572.46 274.379 572.697 274.548 572.875C274.716 573.053 274.948 573.157 275.193 573.165L280.983 573.335C282.822 573.389 284.601 572.928 285.928 572.052C287.256 571.177 288.024 569.958 288.063 568.665L288.093 567.705C288.13 566.412 287.435 565.151 286.162 564.199C284.889 563.246 283.141 562.68 281.303 562.625L275.513 562.455C275.391 562.451 275.269 562.471 275.155 562.514C275.04 562.557 274.936 562.623 274.846 562.706C274.757 562.79 274.685 562.89 274.635 563.001C274.585 563.113 274.557 563.233 274.553 563.355ZM274.403 578.775L274.503 587.615C274.505 587.787 274.542 587.957 274.61 588.115C274.678 588.273 274.777 588.416 274.901 588.536C275.024 588.655 275.17 588.75 275.33 588.813C275.49 588.876 275.661 588.908 275.833 588.905L282.453 588.825C284.284 588.802 286.033 588.21 287.315 587.179C288.598 586.147 289.309 584.761 289.293 583.325V582.705C289.285 581.993 289.098 581.289 288.743 580.635C288.388 579.981 287.871 579.389 287.223 578.893C286.575 578.397 285.807 578.007 284.965 577.745C284.122 577.483 283.221 577.354 282.313 577.365L275.693 577.455C275.347 577.46 275.018 577.602 274.776 577.849C274.534 578.097 274.4 578.429 274.403 578.775Z" fill="#F0F0F0"/>
<path d="M306.313 588.195C310.653 588.522 314.996 588.735 319.343 588.835C320.456 588.855 321.396 589.035 322.163 589.375C322.455 589.504 322.696 589.728 322.844 590.011C322.993 590.294 323.041 590.619 322.98 590.933C322.92 591.246 322.754 591.53 322.512 591.738C322.269 591.945 321.962 592.064 321.643 592.075L301.823 592.705C301.73 592.708 301.638 592.692 301.551 592.659C301.465 592.625 301.386 592.575 301.319 592.511C301.252 592.447 301.198 592.37 301.161 592.285C301.124 592.2 301.104 592.108 301.103 592.015L301.043 559.115C301.043 559.007 301.064 558.899 301.106 558.799C301.148 558.699 301.209 558.608 301.287 558.532C301.364 558.455 301.455 558.395 301.556 558.355C301.657 558.314 301.764 558.294 301.873 558.295L320.823 558.565C321.133 558.569 321.437 558.653 321.706 558.808C321.974 558.964 322.197 559.187 322.354 559.454C322.511 559.722 322.597 560.026 322.602 560.336C322.607 560.646 322.531 560.953 322.383 561.225C321.863 562.172 321.013 562.628 319.833 562.595C315.4 562.468 310.96 562.432 306.513 562.485C306.066 562.492 305.843 562.715 305.843 563.155L305.833 572.355C305.83 572.547 305.904 572.732 306.039 572.871C306.174 573.009 306.358 573.09 306.553 573.095L319.523 573.495C320.076 573.508 320.303 573.788 320.203 574.335L319.803 576.585C319.75 576.912 319.556 577.078 319.223 577.085L306.543 577.415C306.37 577.42 306.207 577.492 306.086 577.615C305.964 577.738 305.895 577.903 305.893 578.075L305.773 587.615C305.773 587.975 305.953 588.168 306.313 588.195Z" fill="#F0F0F0"/>
<path d="M334.903 588.465C339.313 588.745 345.583 587.925 350.103 589.135C350.446 589.222 350.746 589.429 350.951 589.718C351.155 590.006 351.25 590.358 351.219 590.711C351.188 591.063 351.032 591.393 350.78 591.641C350.528 591.889 350.196 592.04 349.843 592.065C343.203 592.598 336.603 592.595 330.043 592.055C329.732 592.027 329.443 591.884 329.233 591.654C329.024 591.425 328.909 591.125 328.913 590.815L329.283 558.925C329.289 558.559 329.473 558.375 329.833 558.375L332.583 558.355C332.689 558.354 332.795 558.374 332.893 558.414C332.992 558.454 333.082 558.513 333.158 558.588C333.234 558.663 333.295 558.753 333.337 558.852C333.379 558.951 333.401 559.057 333.403 559.165L333.553 587.035C333.559 587.928 334.009 588.405 334.903 588.465Z" fill="#F0F0F0"/>
<path d="M360.643 573.035L373.933 573.255C374.433 573.262 374.633 573.512 374.533 574.005L374.013 576.595C373.913 577.068 373.623 577.312 373.143 577.325L361.133 577.585C360.865 577.593 360.61 577.703 360.42 577.892C360.23 578.082 360.12 578.337 360.113 578.605L359.833 587.135C359.825 587.398 359.919 587.654 360.097 587.848C360.274 588.042 360.52 588.16 360.783 588.175C365.443 588.435 370.213 588.488 375.093 588.335C376.353 588.295 376.959 589.268 376.913 591.255C376.905 591.631 376.748 591.989 376.477 592.251C376.206 592.513 375.841 592.658 375.463 592.655L356.123 592.445C355.449 592.438 355.113 592.099 355.113 591.425C355.139 582.472 355.149 573.378 355.143 564.145C355.143 562.458 355.293 560.795 355.593 559.155C355.673 558.708 355.936 558.485 356.383 558.485L376.133 558.325C376.686 558.318 376.929 558.592 376.863 559.145L376.533 561.875C376.506 562.097 376.397 562.301 376.227 562.449C376.058 562.597 375.839 562.677 375.613 562.675L360.573 562.345C360.496 562.342 360.42 562.355 360.349 562.383C360.277 562.41 360.212 562.452 360.157 562.505C360.102 562.558 360.058 562.622 360.028 562.692C359.998 562.763 359.983 562.839 359.983 562.915L359.943 572.315C359.941 572.408 359.959 572.501 359.993 572.588C360.027 572.674 360.079 572.753 360.144 572.82C360.209 572.887 360.286 572.94 360.372 572.977C360.457 573.014 360.55 573.034 360.643 573.035Z" fill="#F0F0F0"/>
<path d="M388.363 588.385L404.623 588.365C404.996 588.365 405.179 588.552 405.173 588.925L405.143 591.985C405.14 592.151 405.072 592.308 404.955 592.424C404.837 592.54 404.678 592.605 404.513 592.605L381.573 592.635C381.408 592.635 381.247 592.595 381.101 592.519C380.955 592.444 380.829 592.334 380.734 592.2C380.639 592.066 380.578 591.911 380.555 591.749C380.532 591.586 380.548 591.42 380.603 591.265C381.083 589.898 381.779 588.548 382.693 587.215C387.773 579.848 392.886 572.372 398.033 564.785C398.839 563.598 398.523 563.008 397.083 563.015L382.733 563.105C382.566 563.105 382.405 563.04 382.287 562.924C382.169 562.807 382.103 562.65 382.103 562.485L382.093 559.155C382.093 558.956 382.171 558.765 382.309 558.625C382.448 558.484 382.636 558.405 382.833 558.405L404.363 558.325C404.678 558.323 404.987 558.407 405.257 558.568C405.528 558.73 405.749 558.962 405.897 559.241C406.045 559.52 406.115 559.835 406.098 560.151C406.082 560.467 405.979 560.773 405.803 561.035L387.893 587.495C387.835 587.581 387.801 587.68 387.795 587.784C387.79 587.887 387.812 587.99 387.86 588.081C387.909 588.173 387.981 588.249 388.069 588.303C388.158 588.356 388.259 588.385 388.363 588.385Z" fill="#F0F0F0"/>
</svg>
